<?xml version="1.0" encoding="UTF-8"?>
<svg version="1.1" xmlns="http://www.w3.org/2000/svg" width="352" height="266">
<path d="M0 0 C7.07912026 4.29910108 12.99964232 9.81274451 18.78515625 15.69140625 C19.33042969 15.03914063 19.87570313 14.386875 20.4375 13.71484375 C28.57486838 4.28384245 36.80269697 -2.45582863 49.48828125 -3.66015625 C61.062237 -4.24059815 70.85130316 -1.47921072 79.9765625 5.9765625 C88.60395315 14.156745 93.17299978 23.96796508 93.88671875 35.86328125 C93.42945413 48.59634231 88.15229259 57.72199425 79.58203125 66.56835938 C77.28804614 68.94672813 75.84553477 70.51027068 74.78515625 73.69140625 C75.28144531 73.99691406 75.77773437 74.30242187 76.2890625 74.6171875 C85.37094415 80.73496357 90.90490581 90.33310545 93.28515625 100.9140625 C94.98548127 111.80676963 91.99973035 122.35733207 85.73046875 131.2890625 C79.41403399 139.08947892 70.91111309 145.2297726 60.78515625 146.69140625 C47.51042051 147.37338192 36.8229695 146.00422708 26.6171875 136.953125 C24.47783772 135.00562946 22.37876136 133.02003565 20.2890625 131.01953125 C18.02190484 128.69247637 18.02190484 128.69247637 15.78515625 127.69140625 C15.55828125 128.22765625 15.33140625 128.76390625 15.09765625 129.31640625 C10.68377706 137.30342574 3.71582846 142.5341963 -4.83984375 145.56640625 C-15.81413994 148.43818469 -27.79386045 147.78260685 -37.765625 142.28515625 C-46.98026476 136.35646542 -53.53666531 128.56918671 -56.58984375 117.96484375 C-58.72243766 106.79538316 -57.83240184 96.36862289 -51.9296875 86.5546875 C-48.0257238 81.01954119 -43.08541194 76.36715171 -38.21484375 71.69140625 C-38.93671875 70.96953125 -39.65859375 70.24765625 -40.40234375 69.50390625 C-41.33046875 68.57578125 -42.25859375 67.64765625 -43.21484375 66.69140625 C-44.01921875 65.94890625 -44.82359375 65.20640625 -45.65234375 64.44140625 C-54.7439152 54.68459786 -57.80430249 45.534348 -57.5 32.27734375 C-57.13019878 27.62696682 -56.19934791 23.89341303 -54.21484375 19.69140625 C-53.88613281 18.94503906 -53.55742188 18.19867188 -53.21875 17.4296875 C-48.15440693 7.1082409 -39.70472964 1.69819873 -29.21484375 -2.30859375 C-20.05608848 -5.36151217 -8.56384031 -4.13467393 0 0 Z M-38.21484375 14.69140625 C-44.32563732 21.78366571 -47.77336251 28.8222056 -47.53125 38.296875 C-46.50333524 46.07603236 -42.4729878 54.01080358 -36.515625 59.16015625 C-30.54219761 63.61755109 -25.39221269 65.08196408 -17.90234375 65.06640625 C-16.76502808 65.0650769 -16.76502808 65.0650769 -15.60473633 65.0637207 C-9.81540559 64.94078245 -6.06453856 64.01962818 -1.21484375 60.69140625 C-0.38984375 60.15515625 0.43515625 59.61890625 1.28515625 59.06640625 C1.78015625 58.61265625 2.27515625 58.15890625 2.78515625 57.69140625 C2.78515625 57.03140625 2.78515625 56.37140625 2.78515625 55.69140625 C3.52765625 55.40265625 4.27015625 55.11390625 5.03515625 54.81640625 C7.67934733 53.8087951 7.67934733 53.8087951 9.58984375 52.640625 C14.96227548 50.31766964 21.81836334 51.0119687 27.22265625 52.87890625 C33.10072056 57.0365615 36.77834114 61.48108854 38.47265625 68.56640625 C38.57578125 69.26765625 38.67890625 69.96890625 38.78515625 70.69140625 C41.42515625 70.03140625 44.06515625 69.37140625 46.78515625 68.69140625 C45.22250311 53.0648748 30.25591448 41.92993413 19.83813477 31.44921875 C18.50844849 30.10795296 17.18325671 28.76221685 15.86254883 27.41210938 C1.71018901 12.87333858 1.71018901 12.87333858 -17.21484375 6.69140625 C-25.28063626 6.69140625 -32.30774866 9.27378796 -38.21484375 14.69140625 Z M32.76953125 15.69140625 C29.0752884 19.76218663 29.0752884 19.76218663 26.78515625 24.69140625 C28.4085543 26.4002463 30.07834678 28.06587342 31.78515625 29.69140625 C32.44515625 29.69140625 33.10515625 29.69140625 33.78515625 29.69140625 C35.30964256 26.70871565 36.72455692 23.87320425 37.78515625 20.69140625 C39.34765625 19.69140625 39.34765625 19.69140625 41.78515625 18.69140625 C42.378125 18.43101563 42.97109375 18.170625 43.58203125 17.90234375 C49.21747422 15.56516391 53.81086581 14.96300859 59.84765625 16.44140625 C65.92010004 19.02542488 69.48394544 21.9448541 72.78515625 27.69140625 C73.75632791 30.60492123 74.04722639 32.76729999 74.16015625 35.81640625 C74.20914063 36.70585938 74.258125 37.5953125 74.30859375 38.51171875 C72.85961697 47.313712 66.70885565 53.28401451 60.47265625 59.19140625 C59.01636835 60.59572913 57.56183392 62.0018735 56.109375 63.41015625 C55.47088623 64.01794922 54.83239746 64.62574219 54.17456055 65.25195312 C52.66940828 66.47788745 52.66940828 66.47788745 52.78515625 67.69140625 C56.32416699 69.07345785 59.04025963 69.43466817 62.78515625 68.69140625 C71.39886198 63.01613846 78.59508092 53.56479008 82.16015625 44.00390625 C83.72143597 36.2128143 83.08265047 28.20741873 79.16015625 21.25390625 C74.25988417 14.04968764 68.3683419 9.16800864 59.6953125 7.22265625 C49.38160932 5.62756683 40.18618541 8.33224553 32.76953125 15.69140625 Z M46.78515625 26.69140625 C46.78515625 27.35140625 46.78515625 28.01140625 46.78515625 28.69140625 C46.12515625 28.69140625 45.46515625 28.69140625 44.78515625 28.69140625 C42.42763162 32.37503849 42.39064531 35.38765054 42.78515625 39.69140625 C44.22046728 42.10352617 45.51601665 44.01178273 47.28515625 46.12890625 C47.71441406 46.66966797 48.14367187 47.21042969 48.5859375 47.76757812 C49.63731054 49.08763538 50.70920781 50.39130188 51.78515625 51.69140625 C57.60890918 49.06173808 61.72452441 44.97584407 64.41015625 39.19140625 C64.88466046 34.76270027 63.99673666 32.5248123 61.78515625 28.69140625 C59.89414789 26.5202485 58.71729846 25.79141341 55.85546875 25.484375 C52.58702679 25.41852727 49.89285498 25.65550667 46.78515625 26.69140625 Z M9.78515625 63.69140625 C7.51472908 66.40127093 6.86679849 68.14323689 6.34765625 71.62890625 C6.90843129 75.55433152 8.28804574 77.6393823 10.78515625 80.69140625 C13.99300643 83.04382972 16.88164877 83.15982715 20.78515625 82.69140625 C23.84986927 81.04117616 26.09294532 79.63533025 28.16015625 76.81640625 C29.32126077 72.86865089 29.23663821 69.83339004 27.72265625 66.00390625 C25.14572016 62.92820834 22.53670658 61.98739636 18.78515625 60.69140625 C15.34527217 60.69140625 12.80960799 62.1526501 9.78515625 63.69140625 Z M-32.03515625 79.1484375 C-33.41730223 80.63249945 -33.41730223 80.63249945 -33.21484375 82.69140625 C-33.87484375 82.69140625 -34.53484375 82.69140625 -35.21484375 82.69140625 C-35.21484375 83.35140625 -35.21484375 84.01140625 -35.21484375 84.69140625 C-35.87484375 84.69140625 -36.53484375 84.69140625 -37.21484375 84.69140625 C-43.03317179 90.64272464 -47.26609368 98.75223834 -47.71484375 107.12890625 C-47.26000528 115.43337644 -43.99228779 122.96167569 -38.28125 128.96875 C-31.77881187 134.3894971 -24.17861708 137.09325791 -15.78125 136.96875 C-7.72512009 136.09814844 -0.63696473 132.70288821 4.78515625 126.69140625 C6.27453944 124.74102351 7.52658267 122.80580987 8.78515625 120.69140625 C7.4999606 117.82443133 6.21386371 115.71532913 3.78515625 113.69140625 C3.12515625 113.69140625 2.46515625 113.69140625 1.78515625 113.69140625 C1.57761719 114.21089844 1.37007812 114.73039062 1.15625 115.265625 C-1.22754552 120.66158056 -3.91283684 123.98226675 -9.21484375 126.69140625 C-14.86444533 128.46893621 -20.3839061 128.3017188 -25.96484375 126.44140625 C-32.28649134 123.03744216 -36.00206669 119.5782311 -38.21484375 112.69140625 C-39.20169723 106.41142957 -38.30885143 101.73958592 -35.08984375 96.28515625 C-34.05442415 94.70223815 -34.05442415 94.70223815 -34.21484375 92.69140625 C-33.55484375 92.69140625 -32.89484375 92.69140625 -32.21484375 92.69140625 C-32.21484375 92.03140625 -32.21484375 91.37140625 -32.21484375 90.69140625 C-31.55484375 90.69140625 -30.89484375 90.69140625 -30.21484375 90.69140625 C-27.54817708 88.35807292 -27.54817708 88.35807292 -25.21484375 85.69140625 C-25.21484375 85.03140625 -25.21484375 84.37140625 -25.21484375 83.69140625 C-24.55484375 83.69140625 -23.89484375 83.69140625 -23.21484375 83.69140625 C-21.54817708 82.35807292 -21.54817708 82.35807292 -20.21484375 80.69140625 C-20.21484375 80.03140625 -20.21484375 79.37140625 -20.21484375 78.69140625 C-19.55484375 78.69140625 -18.89484375 78.69140625 -18.21484375 78.69140625 C-18.21484375 78.03140625 -18.21484375 77.37140625 -18.21484375 76.69140625 C-17.55484375 76.36140625 -16.89484375 76.03140625 -16.21484375 75.69140625 C-23.08963967 74.16982164 -26.86107789 74.12934305 -32.03515625 79.1484375 Z M-11.21484375 74.69140625 C-10.15998324 80.81237316 -8.56267349 85.44647299 -5.21484375 90.69140625 C-4.55484375 90.69140625 -3.89484375 90.69140625 -3.21484375 90.69140625 C-2.95095352 91.27963165 -2.68706329 91.86785706 -2.41517639 92.47390747 C-1.16586597 94.78188798 0.14689279 96.31296201 1.99047852 98.17138672 C2.6419838 98.83242401 3.29348907 99.4934613 3.96473694 100.17453003 C4.66988937 100.87877106 5.37504181 101.58301208 6.1015625 102.30859375 C6.83205307 103.04336945 7.56254364 103.77814514 8.31517029 104.53518677 C9.86356411 106.08932168 11.41458315 107.64084483 12.96801758 109.18994141 C15.3232643 111.54204684 17.66493025 113.90709299 20.00585938 116.2734375 C21.51611466 117.78596789 23.02715813 119.29771177 24.5390625 120.80859375 C25.23004532 121.50878632 25.92102814 122.20897888 26.63294983 122.9303894 C34.25799135 130.48491894 41.98357909 136.43936641 53.03515625 137.06640625 C62.10453842 136.7887721 69.47950813 133.0782859 75.90625 126.8125 C81.95057056 119.98907783 83.04543161 112.70344057 82.78515625 103.69140625 C81.75666997 96.66012024 78.90784091 90.65467127 73.78515625 85.69140625 C64.85197496 79.30459906 57.72778907 77.8595787 46.78515625 78.69140625 C40.50682033 80.17214585 36.05600598 82.99816574 31.34375 87.296875 C26.31271874 91.79832402 21.35223132 92.28376731 14.828125 92.10546875 C8.6148469 91.26001627 4.35836623 88.54698725 0.34765625 83.81640625 C-1.34827067 80.42455242 -2.33203586 77.36977247 -3.21484375 73.69140625 C-6.32741944 73.69140625 -8.3225006 73.86502249 -11.21484375 74.69140625 Z M-20.08984375 93.3359375 C-20.79109375 94.05136719 -21.49234375 94.76679688 -22.21484375 95.50390625 C-22.91609375 96.21160156 -23.61734375 96.91929687 -24.33984375 97.6484375 C-28.04685035 101.68753011 -28.66015132 104.18379572 -28.53125 109.46875 C-28.05109175 112.8417135 -26.72365613 114.45381683 -24.21484375 116.69140625 C-21.30265808 118.37740848 -19.58319956 118.69908033 -16.21484375 118.62890625 C-12.46365189 117.45665879 -10.77464942 115.61689845 -8.21484375 112.69140625 C-7.88484375 112.36140625 -7.55484375 112.03140625 -7.21484375 111.69140625 C-6.30765006 106.88327968 -6.57908416 104.74117864 -9.15234375 100.4921875 C-11.36120931 97.41350724 -13.64339924 94.4763642 -16.21484375 91.69140625 C-18.37991283 91.47160917 -18.37991283 91.47160917 -20.08984375 93.3359375 Z " fill="#359CBF" transform="translate(170.21484375,52.30859375)"/>
<path d="M0 0 C2.35546875 1.34375 2.35546875 1.34375 4 3 C4 3.99 4 4.98 4 6 C4.99 6 5.98 6 7 6 C8.35862973 9.90480249 7.89469712 13.7101776 7.5625 17.75 C7.51029297 18.44738281 7.45808594 19.14476563 7.40429688 19.86328125 C7.27525928 21.57596203 7.13840386 23.28805066 7 25 C6.67 25 6.34 25 6 25 C5.67 21.7 5.34 18.4 5 15 C-1.66844118 11.71070198 -1.66844118 11.71070198 -8.9375 11.5625 C-12.52291219 13.24544858 -14.24655734 14.49311468 -16 18 C-16.77819334 23.31765446 -14.92073046 26.39165303 -12.19140625 30.75390625 C-10.90616679 33.17689868 -10.41265778 35.30112325 -10 38 C-11.875 38.625 -11.875 38.625 -14 39 C-14.66 38.34 -15.32 37.68 -16 37 C-15.625 34.875 -15.625 34.875 -15 33 C-15.9075 33.20625 -16.815 33.4125 -17.75 33.625 C-21.22235536 34.02565639 -22.20725167 33.95492383 -25 32 C-25.828125 29.8359375 -25.828125 29.8359375 -26.25 27.375 C-26.39953125 26.55773437 -26.5490625 25.74046875 -26.703125 24.8984375 C-26.85007812 23.95871094 -26.85007812 23.95871094 -27 23 C-30.96 23.495 -30.96 23.495 -35 24 C-34.65066406 24.90363281 -34.30132812 25.80726563 -33.94140625 26.73828125 C-33.25884766 28.50751953 -33.25884766 28.50751953 -32.5625 30.3125 C-31.88380859 32.07013672 -31.88380859 32.07013672 -31.19140625 33.86328125 C-30.42015245 35.89382815 -29.68687358 37.93937926 -29 40 C-28.34 40 -27.68 40 -27 40 C-22.77684978 44.09517597 -22.3813092 47.37568927 -22 53 C-25.625 56 -25.625 56 -29 56 C-29.0825 55.236875 -29.165 54.47375 -29.25 53.6875 C-30.15495191 50.44475565 -31.28773348 49.83734184 -34 48 C-34 47.34 -34 46.68 -34 46 C-34.61875 45.896875 -35.2375 45.79375 -35.875 45.6875 C-38 45 -38 45 -40 42 C-43.6689056 43.49717672 -45.60573328 45.60762731 -48.125 48.625 C-49.37446801 50.11964664 -50.65778112 51.58805547 -52 53 C-52.66 53 -53.32 53 -54 53 C-54.66 54.98 -55.32 56.96 -56 59 C-56.66 59 -57.32 59 -58 59 C-58.33 60.32 -58.66 61.64 -59 63 C-59.33 63 -59.66 63 -60 63 C-60.125 55.375 -60.125 55.375 -59 52 C-59.99 52.495 -59.99 52.495 -61 53 C-58.86279209 44.71180348 -58.86279209 44.71180348 -55.5 41.9375 C-53 41 -53 41 -50 41 C-50 40.34 -50 39.68 -50 39 C-49.34 39 -48.68 39 -48 39 C-47.67 39.66 -47.34 40.32 -47 41 C-46.896875 40.360625 -46.79375 39.72125 -46.6875 39.0625 C-46.460625 38.381875 -46.23375 37.70125 -46 37 C-44.515 36.505 -44.515 36.505 -43 36 C-43.268125 35.46375 -43.53625 34.9275 -43.8125 34.375 C-44 32 -44 32 -41.5625 28.875 C-40.716875 27.92625 -39.87125 26.9775 -39 26 C-39 25.34 -39 24.68 -39 24 C-39.88751953 24.01740234 -39.88751953 24.01740234 -40.79296875 24.03515625 C-45.00231785 24.08322386 -48.8922333 24.06006883 -53 23 C-53.33 21.02 -53.66 19.04 -54 17 C-57.96 17.495 -57.96 17.495 -62 18 C-62.66 16.35 -63.32 14.7 -64 13 C-59.7776281 12.03237311 -57.19496586 11.69086519 -53.1875 13.4375 C-44.41385336 17.12276969 -34.74308951 14.64088272 -25.9375 12.125 C-23.80545289 11.15838386 -23.80545289 11.15838386 -23.1875 8.875 C-23.0946875 7.946875 -23.0946875 7.946875 -23 7 C-22.34 7 -21.68 7 -21 7 C-21 6.34 -21 5.68 -21 5 C-14.32760689 0.28214629 -8.16529103 -1.41799555 0 0 Z " fill="#369BBF" transform="translate(194,103)"/>
<path d="M0 0 C4.32889575 3.35580364 7.1479436 8.30711205 8.859375 13.44140625 C9.60055655 20.28214745 8.97969559 25.81070421 4.859375 31.44140625 C0.53130923 36.15721642 -3.77826493 39.00116808 -10.26953125 39.65625 C-18.30317749 39.99608275 -23.78080878 37.23722948 -29.609375 31.8828125 C-33.13622302 28.48114582 -36.65219973 25.07001425 -40.140625 21.62890625 C-40.82447266 20.95827148 -41.50832031 20.28763672 -42.21289062 19.59667969 C-42.84904297 18.96149414 -43.48519531 18.32630859 -44.140625 17.671875 C-44.718125 17.09848389 -45.295625 16.52509277 -45.890625 15.93432617 C-47.140625 14.44140625 -47.140625 14.44140625 -47.140625 12.44140625 C-45.79871094 12.03921875 -45.79871094 12.03921875 -44.4296875 11.62890625 C-36.82184573 9.16325177 -31.5037113 6.54225887 -25.37109375 1.25 C-17.63564816 -5.02234905 -8.56173522 -4.64046049 0 0 Z M-22.578125 11.94140625 C-23.11888672 12.37066406 -23.65964844 12.79992187 -24.21679688 13.2421875 C-25.53685413 14.29356054 -26.84052063 15.36545781 -28.140625 16.44140625 C-26.7619397 19.54003559 -25.17039302 21.68264057 -22.765625 24.06640625 C-22.18039063 24.65679687 -21.59515625 25.2471875 -20.9921875 25.85546875 C-17.85038362 28.54654971 -15.9434778 29.45627389 -11.765625 29.37890625 C-7.12721511 28.17931749 -5.40626723 26.94030864 -2.140625 23.44140625 C-0.70147014 19.5472225 -1.04981019 17.73907702 -2.265625 13.75390625 C-4.30496991 10.15106358 -5.31369869 8.91999142 -9.140625 7.44140625 C-15.04997777 6.81305213 -18.15062898 8.24164169 -22.578125 11.94140625 Z " fill="#339CC1" transform="translate(236.140625,141.55859375)"/>
<path d="M0 0 C3.58260469 2.75158814 6.77700727 5.83976373 10 9 C10.5657373 9.54672363 11.13147461 10.09344727 11.71435547 10.65673828 C13.52603071 12.40888635 15.32758489 14.1707324 17.125 15.9375 C17.70596436 16.5051709 18.28692871 17.0728418 18.88549805 17.65771484 C20.29664126 19.06652207 21.65365202 20.52914648 23 22 C23 22.66 23 23.32 23 24 C21.515 24.52787109 21.515 24.52787109 20 25.06640625 C12.87610397 27.69703165 7.33018605 30.08612305 1.8125 35.44921875 C-2.72604471 39.33241325 -8.15978327 40.28851458 -14 40.0625 C-19.65741612 39.21784689 -23.90124839 36.97772548 -28 33 C-31.99271721 27.57997967 -33.80900187 22.11882957 -33.41796875 15.38671875 C-32.44765197 9.84593791 -30.15043122 6.17657738 -26.25 2.1875 C-17.92107921 -3.41850438 -9.18409243 -5.19318681 0 0 Z M-21 12 C-22.73631636 15.47263273 -22.60190402 19.21193013 -22 23 C-18.94800358 26.85515337 -16.73616047 28.75693753 -11.875 29.4375 C-6.5842823 28.8401609 -3.95900098 26.35494722 0 23 C1.32747251 21.99223291 2.65921232 20.98998292 4 20 C2.60609461 16.84280428 0.96365028 14.7187347 -1.5 12.3125 C-2.1084375 11.71050781 -2.716875 11.10851562 -3.34375 10.48828125 C-6.61115801 7.55223773 -9.50710458 7.67296381 -13.73828125 7.70703125 C-17.0542278 8.13655801 -18.74987627 9.60924354 -21 12 Z " fill="#349BBF" transform="translate(164,70)"/>
<path d="M0 0 C0.83144531 0.01933594 1.66289062 0.03867187 2.51953125 0.05859375 C11.71006583 0.58974549 17.95175664 5.69100824 24.5625 11.625 C25.09979736 12.10437012 25.63709473 12.58374023 26.19067383 13.07763672 C27.52385294 14.32037566 28.76976386 15.65527488 30 17 C30 17.99 30 18.98 30 20 C30.66 20.33 31.32 20.66 32 21 C31.67 21.66 31.34 22.32 31 23 C31.99 23.33 32.98 23.66 34 24 C34.495 25.485 34.495 25.485 35 27 C36.32711192 27.35729936 37.66262906 27.68325425 39 28 C41.39402569 29.24324939 43.68112358 30.6175929 46 32 C46.061875 31.278125 46.12375 30.55625 46.1875 29.8125 C47.25187871 26.12811217 49.1865792 24.53894072 52 22 C52.66 21.34 53.32 20.68 54 20 C58.97478391 18.78663807 63.91588755 18.89831775 69 19 C68.505 20.485 68.505 20.485 68 22 C68.70125 22.0825 69.4025 22.165 70.125 22.25 C73.65272947 23.17027725 76.06111614 24.88126977 79 27 C77.68 27.99 76.36 28.98 75 30 C75 29.01 75 28.02 75 27 C73.94039063 27.08378906 72.88078125 27.16757813 71.7890625 27.25390625 C70.40106375 27.35706832 69.01304165 27.45991663 67.625 27.5625 C66.92632812 27.61857422 66.22765625 27.67464844 65.5078125 27.73242188 C60.2265625 28.11328125 60.2265625 28.11328125 58 27 C58 27.66 58 28.32 58 29 C57.34 29 56.68 29 56 29 C56 29.99 56 30.98 56 32 C55.34 32 54.68 32 54 32 C54.05220703 33.35544922 54.05220703 33.35544922 54.10546875 34.73828125 C54.13253906 35.91777344 54.15960938 37.09726563 54.1875 38.3125 C54.23970703 40.07013672 54.23970703 40.07013672 54.29296875 41.86328125 C54 45 54 45 52.48828125 46.91796875 C51.99714844 47.27503906 51.50601563 47.63210937 51 48 C51.66 48 52.32 48 53 48 C53.495 49.98 53.495 49.98 54 52 C52.22422791 52.68875122 52.22422791 52.68875122 50 53 C48.22389221 51.82516479 48.22389221 51.82516479 46.41235352 49.97998047 C45.72806778 49.29531708 45.04378204 48.61065369 44.33876038 47.90524292 C43.60950851 47.15018463 42.88025665 46.39512634 42.12890625 45.6171875 C41.36956284 44.85076935 40.61021942 44.0843512 39.8278656 43.29470825 C37.39413056 40.83292633 34.97827716 38.35439447 32.5625 35.875 C30.93800255 34.22542565 29.31236467 32.57697356 27.68554688 30.9296875 C24.03749847 27.23189032 20.39778596 23.52630936 16.77810669 19.80072021 C15.21729743 18.22006096 13.61713507 16.69821277 11.99975586 15.17626953 C10 13 10 13 10 10 C9.34 9.67 8.68 9.34 8 9 C8 8.34 8 7.68 8 7 C7.46375 7.144375 6.9275 7.28875 6.375 7.4375 C-1.13664092 9.21657285 -11.07494951 11.23527766 -18 7 C-18.99 6.34 -19.98 5.68 -21 5 C-21 4.34 -21 3.68 -21 3 C-13.91468984 -0.3342636 -7.74889819 -0.37171836 0 0 Z " fill="#2C97BC" transform="translate(158,50)"/>
<path d="M0 0 C4.28052247 3.36977301 7.20986591 7.12959772 8.9375 12.3125 C9.2109375 14.6953125 9.2109375 14.6953125 9.3125 17.4375 C9.36148438 18.32695313 9.41046875 19.21640625 9.4609375 20.1328125 C8.01234308 28.93248306 1.84206061 34.94684659 -4.375 40.875 C-5.11556641 41.59751953 -5.85613281 42.32003906 -6.61914062 43.06445312 C-8.42469705 44.82341455 -10.2389361 46.57224775 -12.0625 48.3125 C-10.4125 48.6425 -8.7625 48.9725 -7.0625 49.3125 C-7.0625 49.6425 -7.0625 49.9725 -7.0625 50.3125 C-12.29570058 51.11760778 -16.9095634 51.7847676 -22.0625 50.3125 C-21.0725 50.3125 -20.0825 50.3125 -19.0625 50.3125 C-19.82732838 48.24776568 -20.59962765 46.1857979 -21.375 44.125 C-22.01888672 42.40216797 -22.01888672 42.40216797 -22.67578125 40.64453125 C-23.92040418 37.65393023 -25.31580854 35.03242131 -27.0625 32.3125 C-26.0725 31.8175 -26.0725 31.8175 -25.0625 31.3125 C-25.0625 29.9925 -25.0625 28.6725 -25.0625 27.3125 C-25.7225 27.3125 -26.3825 27.3125 -27.0625 27.3125 C-26.5675 25.8275 -26.5675 25.8275 -26.0625 24.3125 C-25.4025 24.3125 -24.7425 24.3125 -24.0625 24.3125 C-24.0625 20.0225 -24.0625 15.7325 -24.0625 11.3125 C-23.4025 11.3125 -22.7425 11.3125 -22.0625 11.3125 C-22.0625 10.3225 -22.0625 9.3325 -22.0625 8.3125 C-21.4025 8.3125 -20.7425 8.3125 -20.0625 8.3125 C-20.0625 7.6525 -20.0625 6.9925 -20.0625 6.3125 C-18.7425 6.9725 -17.4225 7.6325 -16.0625 8.3125 C-17.0525 8.3125 -18.0425 8.3125 -19.0625 8.3125 C-19.0625 8.9725 -19.0625 9.6325 -19.0625 10.3125 C-19.7225 10.3125 -20.3825 10.3125 -21.0625 10.3125 C-22.29401854 14.16099545 -22.63693317 17.29146778 -22.0625 21.3125 C-19.66700199 25.20190815 -16.93588131 28.76566995 -14.0625 32.3125 C-10.76086979 30.89126845 -8.7454618 29.18926578 -6.375 26.5 C-5.77300781 25.83355469 -5.17101562 25.16710937 -4.55078125 24.48046875 C-2.84928642 22.00191329 -2.32226841 20.29747523 -2.0625 17.3125 C-3.87746913 11.93245387 -3.87746913 11.93245387 -8.0625 8.3125 C-10.38637947 7.91862212 -12.72043749 7.57763915 -15.0625 7.3125 C-15.0625 6.9825 -15.0625 6.6525 -15.0625 6.3125 C-10.1125 6.3125 -5.1625 6.3125 -0.0625 6.3125 C-3.3625 4.6625 -6.6625 3.0125 -10.0625 1.3125 C-10.0625 0.6525 -10.0625 -0.0075 -10.0625 -0.6875 C-14.0225 -0.6875 -17.9825 -0.6875 -22.0625 -0.6875 C-16.08704171 -6.66295829 -6.51387243 -3.58927665 0 0 Z " fill="#329BBE" transform="translate(236.0625,70.6875)"/>
<path d="M0 0 C0.93423645 3.01031744 1.04449911 3.86650268 0 7 C0.66 7.33 1.32 7.66 2 8 C1.01 9.485 1.01 9.485 0 11 C-0.07905064 13.33199388 -0.08798769 15.66832622 0 18 C0.33 17.01 0.66 16.02 1 15 C1.66 15 2.32 15 3 15 C3.66 13.02 4.32 11.04 5 9 C5.66 9 6.32 9 7 9 C7.14695313 10.03060547 7.14695313 10.03060547 7.296875 11.08203125 C7.44640625 11.98308594 7.5959375 12.88414062 7.75 13.8125 C7.88921875 14.70582031 8.0284375 15.59914062 8.171875 16.51953125 C9.18564413 19.55605672 10.27171374 20.40258333 13 22 C16.80160822 23.1570112 18.50856007 23.18901536 22.25 21.75 C25.20562722 20.12940334 25.20562722 20.12940334 27 17 C27.64497577 10.5502423 26.57369533 7.360543 23 2 C25 2 25 2 27.5625 4.25 C29.76715929 6.73730791 30.64403955 7.79635595 31 11 C32.98491642 10.73323796 32.98491642 10.73323796 35 10 C35.97608217 7.07175348 36.08226668 5.04386724 36 2 C40.91935902 6.11619836 45.52647956 10.40410362 50 15 C49.34 15.66 48.68 16.32 48 17 C47.34 16.67 46.68 16.34 46 16 C46 15.34 46 14.68 46 14 C45.01 14 44.02 14 43 14 C42.67 14 42.34 14 42 14 C41.67 15.65 41.34 17.3 41 19 C42.32 19 43.64 19 45 19 C45.53012738 20.28788008 46.0488329 21.58046678 46.5625 22.875 C46.85253906 23.59429687 47.14257812 24.31359375 47.44140625 25.0546875 C48 27 48 27 47 29 C46.34 29 45.68 29 45 29 C45 30.32 45 31.64 45 33 C44.01 33 43.02 33 42 33 C41.505 33.99 41.505 33.99 41 35 C40.01 34.505 40.01 34.505 39 34 C38.67 35.65 38.34 37.3 38 39 C37.01 39.33 36.02 39.66 35 40 C35 39.34 35 38.68 35 38 C34.01 37.505 34.01 37.505 33 37 C33.9075 36.29875 34.815 35.5975 35.75 34.875 C38.91969526 32.25361695 40.87920111 29.50747509 43 26 C41.60667426 22.63279613 40.0210714 21.0140476 37 19 C36.9071875 20.051875 36.9071875 20.051875 36.8125 21.125 C35.45822814 25.91703888 32.44914839 28.9749926 28.4375 31.8125 C22.27036129 34.81700347 15.78236243 34.89601502 9.3125 32.8125 C2.7209006 29.2057758 -1.75238745 25.23529208 -4 18 C-5.10807875 10.88794355 -3.62060979 6.10977902 0 0 Z " fill="#349BBF" transform="translate(135,147)"/>
<path d="M0 0 C4.68096972 1.90706174 8.07018669 4.80659424 10.06640625 9.515625 C10.71473747 11.29535777 11.33122167 13.08712372 11.91015625 14.890625 C12.80291031 17.19633704 12.80291031 17.19633704 15.12109375 17.796875 C15.74113281 17.86390625 16.36117187 17.9309375 17 18 C16.01 18.33 15.02 18.66 14 19 C14.495 19.99 14.495 19.99 15 21 C14.5625 23.125 14.5625 23.125 14 25 C14.84304687 24.83757812 15.68609375 24.67515625 16.5546875 24.5078125 C20.12924229 23.98095068 23.51355129 23.86719989 27.125 23.875 C28.32382813 23.87242187 29.52265625 23.86984375 30.7578125 23.8671875 C33.38724796 23.97489931 35.50841473 24.21905536 38 25 C38.33 24.34 38.66 23.68 39 23 C39.99 25.97 39.99 25.97 41 29 C40.13375 28.67 39.2675 28.34 38.375 28 C29.75014883 25.58574146 20.30957597 25.98190941 12.17578125 29.72265625 C9.33186792 31.39224271 6.98816934 33.38911227 4.55859375 35.60546875 C-0.47190841 40.10644437 -5.42723953 40.58431533 -11.94921875 40.421875 C-16.6016211 39.77852103 -20.42129363 38.04912202 -24 35 C-25.2421875 32.828125 -25.2421875 32.828125 -26 31 C-25.2575 31.020625 -24.515 31.04125 -23.75 31.0625 C-21.29537721 31.00671312 -19.33890739 30.6930096 -17 30 C-17.495 32.475 -17.495 32.475 -18 35 C-16.68 35 -15.36 35 -14 35 C-14.57584432 32.61435923 -15.22227595 30.33317216 -16 28 C-15.33613281 28.10699219 -14.67226562 28.21398437 -13.98828125 28.32421875 C-8.39492179 29.12360395 -8.39492179 29.12360395 -3 27.8125 C0.11705199 24.98767163 0.92430557 23.21111082 1.1875 19 C1.03110676 16.49770821 0.73367959 14.38445867 0 12 C3 13 3 13 4 15 C4.11320856 9.91696314 4.11320856 9.91696314 3 5 C2.01 4.67 1.02 4.34 0 4 C0 2.68 0 1.36 0 0 Z " fill="#359BBF" transform="translate(197,105)"/>
<path d="M0 0 C3.58260469 2.75158814 6.77700727 5.83976373 10 9 C10.84860596 9.82008545 10.84860596 9.82008545 11.71435547 10.65673828 C13.52603071 12.40888635 15.32758489 14.1707324 17.125 15.9375 C17.70596436 16.5051709 18.28692871 17.0728418 18.88549805 17.65771484 C20.29664126 19.06652207 21.65365202 20.52914648 23 22 C23 22.66 23 23.32 23 24 C21.515 24.52787109 21.515 24.52787109 20 25.06640625 C12.84828677 27.70801375 6.91008377 30.06653446 1.515625 35.6796875 C0 37 0 37 -3 37 C-5 34 -5 34 -6 31 C-9.96 31 -13.92 31 -18 31 C-18.33 29.68 -18.66 28.36 -19 27 C-18.484375 27.165 -17.96875 27.33 -17.4375 27.5 C-13.22195461 28.36472726 -9.73278319 29.03521055 -5.875 26.73046875 C-3.86228997 25.20983672 -1.93194803 23.62115639 0 22 C0.99 21.34 1.98 20.68 3 20 C1.47291037 16.56404834 -0.59927045 13.88087546 -3 11 C-0.69 11 1.62 11 4 11 C4.33 12.32 4.66 13.64 5 15 C5.99 14.67 6.98 14.34 8 14 C6.15819067 9.94801946 4.4218175 6.88715851 1 4 C0.01 3.67 -0.98 3.34 -2 3 C-2 2.34 -2 1.68 -2 1 C-6.15626368 -0.00926479 -10.04365094 -0.10239579 -14.3125 -0.0625 C-15.56675781 -0.05347656 -16.82101563 -0.04445313 -18.11328125 -0.03515625 C-19.06589844 -0.02355469 -20.01851562 -0.01195313 -21 0 C-15.52706074 -5.47293926 -6.1696258 -3.48864295 0 0 Z " fill="#2896BD" transform="translate(164,70)"/>
<path d="M0 0 C2.46942052 4.93884104 1.88579016 12.60360026 1 18 C-1.31455967 22.93255246 -4.9498165 25.8143262 -9.875 28 C-15.60758498 29.7075785 -21.3061032 29.87637804 -26.9375 27.75 C-30.0641577 25.96333845 -30.83696006 25.27765802 -32 22 C-32.66 21.34 -33.32 20.68 -34 20 C-33.34 20 -32.68 20 -32 20 C-31.67 19.34 -31.34 18.68 -31 18 C-28.4375 17.375 -28.4375 17.375 -26 17 C-26 17.66 -26 18.32 -26 19 C-24.02 19 -22.04 19 -20 19 C-20 19.66 -20 20.32 -20 21 C-19.34 20.67 -18.68 20.34 -18 20 C-16.865625 20.0825 -15.73125 20.165 -14.5625 20.25 C-13.386875 20.1675 -12.21125 20.085 -11 20 C-7.84973917 16.12562708 -7.31549832 12.00982333 -6.8125 7.1875 C-6.73064453 6.49462891 -6.64878906 5.80175781 -6.56445312 5.08789062 C-6.36575707 3.39313016 -6.18140797 1.69669806 -6 0 C-3 -1 -3 -1 0 0 Z " fill="#3A9DC0" transform="translate(242,152)"/>
<path d="M0 0 C0.66 0.33 1.32 0.66 2 1 C2 1.66 2 2.32 2 3 C2.99 3 3.98 3 5 3 C5 3.66 5 4.32 5 5 C6.03060547 4.81244141 6.03060547 4.81244141 7.08203125 4.62109375 C11.54877001 5.20111204 13.64179034 7.91331209 16.6875 11.0625 C17.26822266 11.62388672 17.84894531 12.18527344 18.44726562 12.76367188 C22.28196135 16.64269934 23.94220418 19.642776 25 25 C23.02 25.66 21.04 26.32 19 27 C18.319375 25.7934375 18.319375 25.7934375 17.625 24.5625 C16.25274335 21.91143428 16.25274335 21.91143428 14 21 C14 20.34 14 19.68 14 19 C13.195625 19 12.39125 19 11.5625 19 C10.375 19 9.1875 19 8 19 C8 20.98 8 22.96 8 25 C7.34 24.34 6.68 23.68 6 23 C5.67 23.99 5.34 24.98 5 26 C4.01 26 3.02 26 2 26 C2 27.32 2 28.64 2 30 C1.360625 30.144375 0.72125 30.28875 0.0625 30.4375 C-1.97545146 30.81007181 -1.97545146 30.81007181 -3 32 C-4.66617115 32.04063832 -6.33388095 32.042721 -8 32 C-8 31.34 -8 30.68 -8 30 C-8.66 30 -9.32 30 -10 30 C-9.34 31.98 -8.68 33.96 -8 36 C-10.60582371 36.93065133 -11.64198224 37.14917407 -14.25 36.0625 C-15.11625 35.5365625 -15.11625 35.5365625 -16 35 C-15.375 32.5625 -15.375 32.5625 -14 30 C-10.875 29.1875 -10.875 29.1875 -8 29 C-8 28.34 -8 27.68 -8 27 C-6.35 27.33 -4.7 27.66 -3 28 C-2.67 26.35 -2.34 24.7 -2 23 C-0.02 22.67 1.96 22.34 4 22 C4 20.68 4 19.36 4 18 C4.66 18 5.32 18 6 18 C5.46274105 14.62294375 4.88935377 11.303314 4 8 C2.68 8 1.36 8 0 8 C0 5.36 0 2.72 0 0 Z " fill="#2396BC" transform="translate(176,158)"/>
<path d="M0 0 C4.28052247 3.36977301 7.20986591 7.12959772 8.9375 12.3125 C9.859125 20.34380353 8.52147988 25.68210053 3.9375 32.3125 C2.4296875 30.94140625 2.4296875 30.94140625 0.9375 29.3125 C1.0625 27.25 1.0625 27.25 1.9375 25.3125 C2.9275 24.6525 3.9175 23.9925 4.9375 23.3125 C4.6075 21.0025 4.2775 18.6925 3.9375 16.3125 C2.9475 16.3125 1.9575 16.3125 0.9375 16.3125 C0.999375 16.993125 1.06125 17.67375 1.125 18.375 C0.87711662 22.25850623 -0.19861991 24.90609846 -2.0625 28.3125 C-4.6875 29.5625 -4.6875 29.5625 -7.0625 30.3125 C-7.3925 31.3025 -7.7225 32.2925 -8.0625 33.3125 C-8.0625 32.6525 -8.0625 31.9925 -8.0625 31.3125 C-8.7225 30.9825 -9.3825 30.6525 -10.0625 30.3125 C-9.32193359 29.53326172 -9.32193359 29.53326172 -8.56640625 28.73828125 C-7.92574219 28.04089844 -7.28507813 27.34351562 -6.625 26.625 C-5.98691406 25.94050781 -5.34882813 25.25601563 -4.69140625 24.55078125 C-2.85647426 22.02939988 -2.31290845 20.40578088 -2.0625 17.3125 C-3.87746913 11.93245387 -3.87746913 11.93245387 -8.0625 8.3125 C-10.38637947 7.91862212 -12.72043749 7.57763915 -15.0625 7.3125 C-15.0625 6.9825 -15.0625 6.6525 -15.0625 6.3125 C-10.1125 6.3125 -5.1625 6.3125 -0.0625 6.3125 C-3.3625 4.6625 -6.6625 3.0125 -10.0625 1.3125 C-10.0625 0.6525 -10.0625 -0.0075 -10.0625 -0.6875 C-14.0225 -0.6875 -17.9825 -0.6875 -22.0625 -0.6875 C-16.08704171 -6.66295829 -6.51387243 -3.58927665 0 0 Z " fill="#44A2C1" transform="translate(236.0625,70.6875)"/>
<path d="M0 0 C8.85421458 4.80657363 15.26933738 13.38325364 18.47265625 22.8984375 C20.09466464 29.36244131 20.27514924 35.48257053 19 42 C18.67 42 18.34 42 18 42 C17.67 36.72 17.34 31.44 17 26 C16.01 25.67 15.02 25.34 14 25 C13.34 25.33 12.68 25.66 12 26 C11.64086397 29.30041465 11.55541597 32.58112243 11.44140625 35.8984375 C11 39 11 39 9.46484375 40.9140625 C8.73974609 41.45160156 8.73974609 41.45160156 8 42 C8.03480469 41.24976563 8.06960937 40.49953125 8.10546875 39.7265625 C8.35447065 30.31191914 7.31208365 22.08902099 1.40625 14.47265625 C-0.81683186 12.14459553 -3.22213357 10.61503862 -6 9 C-2.98968256 8.06576355 -2.13349732 7.95550089 1 9 C1.06537205 6.90194193 1.06537205 6.90194193 0.5 4.5 C0 2 0 2 0 0 Z " fill="#4DA6C4" transform="translate(244,126)"/>
<path d="M0 0 C0.33 0.66 0.66 1.32 1 2 C1.99 1.34 2.98 0.68 4 0 C6.76655324 -0.14245897 9.42653306 -0.18769445 12.1875 -0.125 C12.93708984 -0.11597656 13.68667969 -0.10695313 14.45898438 -0.09765625 C16.30612654 -0.07412578 18.15310412 -0.03825561 20 0 C20 0.99 20 1.98 20 3 C20.99 3 21.98 3 23 3 C23.495 3.99 23.495 3.99 24 5 C24.66 5 25.32 5 26 5 C26 5.66 26 6.32 26 7 C26.66 7.33 27.32 7.66 28 8 C27.34 8 26.68 8 26 8 C26.99 9.98 27.98 11.96 29 14 C25.15941827 15.28019391 23.6601592 14.60131965 20 13 C19.55744873 12.32098633 19.11489746 11.64197266 18.65893555 10.94238281 C17.13942103 8.74734657 17.13942103 8.74734657 14.45629883 8.54589844 C12.97166138 8.57731934 12.97166138 8.57731934 11.45703125 8.609375 C10.38388672 8.62226563 9.31074219 8.63515625 8.20507812 8.6484375 C7.08552734 8.68195313 5.96597656 8.71546875 4.8125 8.75 C3.11577148 8.77707031 3.11577148 8.77707031 1.38476562 8.8046875 C-1.41100376 8.85187348 -4.20507972 8.91769405 -7 9 C-7 7.68 -7 6.36 -7 5 C-7.66 4.34 -8.32 3.68 -9 3 C-6.03 2.01 -3.06 1.02 0 0 Z " fill="#2796BC" transform="translate(218,121)"/>
<path d="M0 0 C10.47965703 2.68709155 17.82806361 9.75819309 23.4375 18.6875 C25 22 25 22 24.75 24.4375 C24.5025 24.953125 24.255 25.46875 24 26 C22.48632812 23.31445312 22.48632812 23.31445312 20.97265625 20.62890625 C20.1027487 19.02121854 20.1027487 19.02121854 19 18 C16.70897487 19.86321004 16.70897487 19.86321004 16.75 22.8125 C16.81324781 25.91055271 16.81324781 25.91055271 17.9765625 28.1796875 C19.32672601 31.90036709 19.45645867 35.38338014 19.625 39.3125 C19.66367188 40.05306641 19.70234375 40.79363281 19.7421875 41.55664062 C19.83581705 43.37071309 19.91896851 45.18532116 20 47 C18.02 47.495 18.02 47.495 16 48 C16.02320313 47.0821875 16.04640625 46.164375 16.0703125 45.21875 C16.23366759 34.11060403 15.6028367 25.65480153 8 17 C5.1401464 14.72797928 2.17569838 12.79956241 -1 11 C2.01031744 10.06576355 2.86650268 9.95550089 6 11 C6.66 9.35 7.32 7.7 8 6 C6.68 6 5.36 6 4 6 C4 5.01 4 4.02 4 3 C2.35 2.67 0.7 2.34 -1 2 C-0.67 1.34 -0.34 0.68 0 0 Z " fill="#55A7C4" transform="translate(236,51)"/>
<path d="M0 0 C5.57142857 5.14285714 5.57142857 5.14285714 6 9 C6.66 9 7.32 9 8 9 C9.7958955 15.97579243 10.12067256 21.88221482 9 29 C8.01 29.33 7.02 29.66 6 30 C4.77030122 33.51190809 4.77030122 33.51190809 4 37 C2.68 36.34 1.36 35.68 0 35 C-0.66 35.66 -1.32 36.32 -2 37 C-2.75 35.25 -2.75 35.25 -3 33 C-2.34257812 32.44699219 -1.68515625 31.89398438 -1.0078125 31.32421875 C1.34644739 29.06867678 1.34644739 29.06867678 1.2421875 25.50390625 C1.12101563 24.20324219 0.99984375 22.90257812 0.875 21.5625 C0.76929688 20.26441406 0.66359375 18.96632813 0.5546875 17.62890625 C0.06042301 14.39530268 -0.73192029 11.97947184 -2 9 C-2.25 5.3125 -2.25 5.3125 -2 2 C-1.34 1.34 -0.68 0.68 0 0 Z " fill="#319ABF" transform="translate(254,68)"/>
<path d="M0 0 C1.32 0.66 2.64 1.32 4 2 C4.08166849 5.00056084 4.14081551 7.9988539 4.1875 11 C4.21263672 11.83917969 4.23777344 12.67835938 4.26367188 13.54296875 C4.35622641 21.50265864 2.73001817 28.08514253 -3 34 C-3.66 34 -4.32 34 -5 34 C-5.66 33.34 -6.32 32.68 -7 32 C-8.32 32.99 -9.64 33.98 -11 35 C-11 31 -11 31 -9.5625 29.5 C-9.046875 29.005 -8.53125 28.51 -8 28 C-7.28552357 25.89667109 -7.28552357 25.89667109 -7 24 C-6.34 24 -5.68 24 -5 24 C-5.20625 23.071875 -5.4125 22.14375 -5.625 21.1875 C-6 18 -6 18 -4 15 C-3.6620612 11.64200049 -3.55795562 8.30600629 -3.44140625 4.93359375 C-3.29574219 3.96550781 -3.15007812 2.99742187 -3 2 C-2.01 1.34 -1.02 0.68 0 0 Z " fill="#2E99BE" transform="translate(258,150)"/>
<path d="M0 0 C4.47827363 0.5118027 6.84882323 1.77004381 10 5 C14.20530258 11.30219317 16.32433929 17.40247462 15 25 C14.34 25.99 13.68 26.98 13 28 C12.93941406 27.01257813 12.87882812 26.02515625 12.81640625 25.0078125 C12.69072266 23.08582031 12.69072266 23.08582031 12.5625 21.125 C12.44068359 19.21074219 12.44068359 19.21074219 12.31640625 17.2578125 C12.20793973 14.11699848 12.20793973 14.11699848 11 12 C9.35 12 7.7 12 6 12 C6.05220703 13.06927734 6.05220703 13.06927734 6.10546875 14.16015625 C6.30926483 21.37065581 5.59614484 25.76418474 1.8125 31.9375 C-1.28766815 33.75483995 -4.47086794 33.17356387 -8 33 C-8 32.34 -8 31.68 -8 31 C-7.45730469 30.81824219 -6.91460937 30.63648438 -6.35546875 30.44921875 C-5.64003906 30.19785156 -4.92460937 29.94648438 -4.1875 29.6875 C-3.12595703 29.32205078 -3.12595703 29.32205078 -2.04296875 28.94921875 C0.19015608 27.91164832 1.43782889 26.89253963 3 25 C4.24219618 21.09595486 4.06125889 19.19344912 2.8125 15.25 C1.29540582 12.06401755 1.29540582 12.06401755 -0.75 10.5625 C-4.06954369 9.73261408 -6.58250905 9.5875442 -10 10 C-12.25061927 11.47136157 -14.01821734 13.15648124 -16 15 C-16.66 15 -17.32 15 -18 15 C-18 13.68 -18 12.36 -18 11 C-17.01 11 -16.02 11 -15 11 C-15 10.34 -15 9.68 -15 9 C-11.46813168 6.84940691 -8.33712007 6.6202272 -4.25 6.375 C-3.07953125 6.30023438 -1.9090625 6.22546875 -0.703125 6.1484375 C0.18890625 6.09945312 1.0809375 6.05046875 2 6 C1.34 4.02 0.68 2.04 0 0 Z " fill="#46A3C3" transform="translate(230,140)"/>
<path d="M0 0 C0.33 0.99 0.66 1.98 1 3 C1.66 3.66 2.32 4.32 3 5 C2.67 5.66 2.34 6.32 2 7 C-0.80078125 7.59765625 -0.80078125 7.59765625 -4.3125 8.0625 C-9.70517474 8.78489722 -9.70517474 8.78489722 -15 10 C-15 10.66 -15 11.32 -15 12 C-15.99 12 -16.98 12 -18 12 C-18 13.32 -18 14.64 -18 16 C-20.875 16.625 -20.875 16.625 -24 17 C-24.66 16.34 -25.32 15.68 -26 15 C-26.66 14.67 -27.32 14.34 -28 14 C-27.34 13.01 -26.68 12.02 -26 11 C-25.01 11 -24.02 11 -23 11 C-22.938125 10.2575 -22.87625 9.515 -22.8125 8.75 C-21.71019677 5.01912753 -20.2634112 4.08302843 -17 2 C-11.13279564 -1.10616701 -6.458196 -1.24081081 0 0 Z " fill="#42A2C0" transform="translate(230,139)"/>
<path d="M0 0 C0.66 1.32 1.32 2.64 2 4 C-3.98189609 12.10450438 -11.97529727 17.38135736 -22 19 C-29.75439993 19.51262035 -36.61026382 19.38103181 -44 17 C-44 16.67 -44 16.34 -44 16 C-37.73 16.33 -31.46 16.66 -25 17 C-25.66 15.35 -26.32 13.7 -27 12 C-29.39047 11.06802359 -29.39047 11.06802359 -32.1875 10.875 C-36.9850028 10.21849962 -40.6633187 9.1201553 -45 7 C-45 6.34 -45 5.68 -45 5 C-43.96552734 5.32484375 -43.96552734 5.32484375 -42.91015625 5.65625 C-32.13899281 8.84770583 -24.69208772 8.3575154 -14 5 C-14 5.66 -14 6.32 -14 7 C-16.31856917 8.54571278 -18.50638429 9.79618552 -21 11 C-21 11.66 -21 12.32 -21 13 C-18.03 13.495 -18.03 13.495 -15 14 C-15.33 12.02 -15.66 10.04 -16 8 C-15.34 8 -14.68 8 -14 8 C-14 8.66 -14 9.32 -14 10 C-10.06924356 9.42547254 -10.06924356 9.42547254 -7 7 C-6.01 7.33 -5.02 7.66 -4 8 C-4 6.68 -4 5.36 -4 4 C-3.01 4 -2.02 4 -1 4 C-0.67 2.68 -0.34 1.36 0 0 Z " fill="#4FA5C3" transform="translate(182,180)"/>
<path d="M0 0 C0 0.66 0 1.32 0 2 C0.59296875 2.09539062 1.1859375 2.19078125 1.796875 2.2890625 C4.47421293 3.15302616 5.45943528 4.23174829 7.25 6.375 C7.77078125 6.98085937 8.2915625 7.58671875 8.828125 8.2109375 C10 10 10 10 10 13 C9.34 13 8.68 13 8 13 C7.67 13.66 7.34 14.32 7 15 C5 13 5 13 4 11 C2.63875 10.7834375 2.63875 10.7834375 1.25 10.5625 C-2 10 -2 10 -4.1875 8.5 C-8.542775 6.17718667 -13.13117994 6.24727808 -18 6 C-18 6.66 -18 7.32 -18 8 C-19.32 7.34 -20.64 6.68 -22 6 C-21.34 5.34 -20.68 4.68 -20 4 C-19.35232207 1.42938689 -19.35232207 1.42938689 -19 -1 C-12.8330997 -2.780283 -5.76747013 -3.07598407 0 0 Z " fill="#2997BD" transform="translate(162,71)"/>
<path d="M0 0 C0.79921875 0.00902344 1.5984375 0.01804687 2.421875 0.02734375 C3.02515625 0.03894531 3.6284375 0.05054687 4.25 0.0625 C3.92 1.0525 3.59 2.0425 3.25 3.0625 C3.95125 3.145 4.6525 3.2275 5.375 3.3125 C8.90272947 4.23277725 11.31111614 5.94376977 14.25 8.0625 C12.93 9.0525 11.61 10.0425 10.25 11.0625 C10.25 10.0725 10.25 9.0825 10.25 8.0625 C9.19039062 8.14628906 8.13078125 8.23007813 7.0390625 8.31640625 C5.65106375 8.41956832 4.26304165 8.52241663 2.875 8.625 C2.17632812 8.68107422 1.47765625 8.73714844 0.7578125 8.79492188 C-4.5234375 9.17578125 -4.5234375 9.17578125 -6.75 8.0625 C-6.75 8.7225 -6.75 9.3825 -6.75 10.0625 C-7.41 10.0625 -8.07 10.0625 -8.75 10.0625 C-8.75 11.0525 -8.75 12.0425 -8.75 13.0625 C-9.74 13.5575 -9.74 13.5575 -10.75 14.0625 C-10.9975 14.701875 -11.245 15.34125 -11.5 16 C-13.30317715 18.9752423 -15.4881376 19.21157937 -18.75 20.0625 C-19.875 16.3125 -19.875 16.3125 -18.75 14.0625 C-18.09 14.0625 -17.43 14.0625 -16.75 14.0625 C-16.75 13.0725 -16.75 12.0825 -16.75 11.0625 C-16.09 10.7325 -15.43 10.4025 -14.75 10.0625 C-14.42 9.0725 -14.09 8.0825 -13.75 7.0625 C-12.76 6.4025 -11.77 5.7425 -10.75 5.0625 C-10.440625 4.381875 -10.13125 3.70125 -9.8125 3 C-8.75 1.0625 -8.75 1.0625 -6.98046875 0.4453125 C-4.60515459 0.03764037 -2.40840125 -0.03541767 0 0 Z " fill="#2696BC" transform="translate(222.75,68.9375)"/>
<path d="M0 0 C0.66 0.33 1.32 0.66 2 1 C2.40729228 3.32156597 2.74438677 5.6568787 3 8 C1.02 8.99 1.02 8.99 -1 10 C-0.70480469 11.175625 -0.40960938 12.35125 -0.10546875 13.5625 C0.22736479 16.2345937 0.27279218 17.53573449 -1.10400391 19.87890625 C-2.75284136 21.71060638 -4.47424944 23.35877317 -6.3125 25 C-6.92029297 25.58394531 -7.52808594 26.16789062 -8.15429688 26.76953125 C-12.64731228 31 -12.64731228 31 -15 31 C-16.42779538 22.14078769 -16.42779538 22.14078769 -14.875 18 C-12.70020427 15.68021788 -11.02608643 14.90782593 -8 14 C-7.01 13.67 -6.02 13.34 -5 13 C-4.04111709 10.23824324 -4.04111709 10.23824324 -3.4375 7 C-3.01728941 4.9867877 -2.55013907 2.98165277 -2 1 C-1.34 0.67 -0.68 0.34 0 0 Z " fill="#2695BD" transform="translate(239,86)"/>
<path d="M0 0 C0.99 0.66 1.98 1.32 3 2 C3 2.66 3 3.32 3 4 C2.01 4.35191406 1.02 4.70382813 0 5.06640625 C-7.15171323 7.70801375 -13.08991623 10.06653446 -18.484375 15.6796875 C-20 17 -20 17 -23 17 C-25 14 -25 14 -26 11 C-29.96 11 -33.92 11 -38 11 C-38.33 9.68 -38.66 8.36 -39 7 C-38.484375 7.165 -37.96875 7.33 -37.4375 7.5 C-33.20428776 8.36835123 -29.7025626 9.07349076 -25.875 6.66015625 C-24.48908474 5.57740995 -23.12767634 4.46231236 -21.796875 3.3125 C-20 2 -20 2 -17 2 C-17.99 3.65 -18.98 5.3 -20 7 C-18.68 6.34 -17.36 5.68 -16 5 C-16 5.66 -16 6.32 -16 7 C-14.02 7 -12.04 7 -10 7 C-10 6.34 -10 5.68 -10 5 C-8.35 5 -6.7 5 -5 5 C-5 4.34 -5 3.68 -5 3 C-3.35 3 -1.7 3 0 3 C0 2.01 0 1.02 0 0 Z " fill="#46A1C2" transform="translate(184,90)"/>
<path d="M0 0 C0.99 0.66 1.98 1.32 3 2 C1.02966797 1.96519531 1.02966797 1.96519531 -0.98046875 1.9296875 C-2.71614013 1.91092349 -4.45181768 1.89272396 -6.1875 1.875 C-7.05181641 1.85824219 -7.91613281 1.84148438 -8.80664062 1.82421875 C-13.39373145 1.78906863 -16.78961031 1.98599062 -21 4 C-21.99 4 -22.98 4 -24 4 C-21.58496158 6.92346756 -19.68577153 7.41803607 -16 8 C-15.67 8.33 -15.34 8.66 -15 9 C-12.73181338 9.12617338 -10.45916315 9.17580246 -8.1875 9.1875 C-6.32158203 9.20876953 -6.32158203 9.20876953 -4.41796875 9.23046875 C-1.19637861 9.01324153 0.27555382 8.5489548 3 7 C3.99 7 4.98 7 6 7 C6.66666667 9.66666667 7.33333333 12.33333333 8 15 C7.21625 14.71125 6.4325 14.4225 5.625 14.125 C-4.44046076 11.00123632 -13.89238646 9.76594049 -23.75 14.625 C-24.4925 15.07875 -25.235 15.5325 -26 16 C-25.67 14.68 -25.34 13.36 -25 12 C-24.01 12 -23.02 12 -22 12 C-22 11.34 -22 10.68 -22 10 C-25.37356857 9.9338516 -28.49609847 9.89921969 -31.8125 10.5625 C-34 11 -34 11 -36 10 C-24.21307469 1.45874977 -14.4569635 -1.32689313 0 0 Z " fill="#6DB7CF" transform="translate(161,49)"/>
<path d="M0 0 C3.51726472 1.25265713 6.9160596 1.45144864 10.609375 1.62109375 C11.64868164 1.67910156 11.64868164 1.67910156 12.70898438 1.73828125 C14.40454515 1.83182943 16.10067212 1.91501739 17.796875 1.99609375 C17.466875 3.64609375 17.136875 5.29609375 16.796875 6.99609375 C17.786875 7.32609375 18.776875 7.65609375 19.796875 7.99609375 C18.796875 8.99609375 18.796875 8.99609375 16.84741211 9.10961914 C16.0147583 9.10438232 15.18210449 9.09914551 14.32421875 9.09375 C13.42509766 9.09052734 12.52597656 9.08730469 11.59960938 9.08398438 C10.65408203 9.07560547 9.70855469 9.06722656 8.734375 9.05859375 C7.78498047 9.05408203 6.83558594 9.04957031 5.85742188 9.04492188 C3.50384435 9.03309485 1.15039023 9.016614 -1.203125 8.99609375 C-1.533125 7.01609375 -1.863125 5.03609375 -2.203125 2.99609375 C-4.843125 3.32609375 -7.483125 3.65609375 -10.203125 3.99609375 C-10.863125 2.34609375 -11.523125 0.69609375 -12.203125 -1.00390625 C-7.92222355 -2.48575675 -4.08637382 -1.86205332 0 0 Z " fill="#2695BE" transform="translate(142.203125,117.00390625)"/>
<path d="M0 0 C1.5625 1.0625 1.5625 1.0625 3 3 C2.835 4.01707031 2.67 5.03414063 2.5 6.08203125 C1.92012043 10.62593131 2.5162616 14.18737503 3.4375 18.625 C5.22069282 27.53317725 5.22069282 27.53317725 5 32 C4.67 31.01 4.34 30.02 4 29 C3.34 29 2.68 29 2 29 C2 26.69 2 24.38 2 22 C0.8553125 22.556875 0.8553125 22.556875 -0.3125 23.125 C-1.199375 23.41375 -2.08625 23.7025 -3 24 C-3.99 23.34 -4.98 22.68 -6 22 C-6.22137393 19.37302936 -6.28162025 16.99106036 -6.1875 14.375 C-6.17396484 13.66859375 -6.16042969 12.9621875 -6.14648438 12.234375 C-6.1111104 10.48925872 -6.05730221 8.74453392 -6 7 C-5.34 7 -4.68 7 -4 7 C-4 6.34 -4 5.68 -4 5 C-3.02149805 3.97895449 -2.02019573 2.9793879 -1 2 C-0.67 1.34 -0.34 0.68 0 0 Z " fill="#2795BB" transform="translate(120,75)"/>
<path d="M0 0 C2.31 0.66 4.62 1.32 7 2 C7 2.66 7 3.32 7 4 C7.99 4.33 8.98 4.66 10 5 C10 5.99 10 6.98 10 8 C12.97 8.495 12.97 8.495 16 9 C17.04449911 5.86650268 16.93423645 5.01031744 16 2 C16.72703125 2.58007812 16.72703125 2.58007812 17.46875 3.171875 C22.11212416 6.77941954 26.66713323 9.52402614 32 12 C32 12.33 32 12.66 32 13 C29.03 12.67 26.06 12.34 23 12 C23.33 12.66 23.66 13.32 24 14 C23.0625 16.625 23.0625 16.625 22 19 C17.30526717 17.55079412 14.27424675 14.77943351 10.8125 11.4375 C7.20855319 7.81023115 7.20855319 7.81023115 3 5 C2.67 5.99 2.34 6.98 2 8 C1.67 8 1.34 8 1 8 C0.67 5.36 0.34 2.72 0 0 Z " fill="#46A3C2" transform="translate(183,175)"/>
<path d="M0 0 C2.87955968 2.19096932 4.92300357 4.14238557 6.875 7.1875 C6.545 8.1775 6.215 9.1675 5.875 10.1875 C5.545 9.5275 5.215 8.8675 4.875 8.1875 C4.215 8.1875 3.555 8.1875 2.875 8.1875 C2.545 9.1775 2.215 10.1675 1.875 11.1875 C0.72842054 13.70997481 -0.14115727 15.20365727 -2.125 17.1875 C-2.558125 16.07375 -2.99125 14.96 -3.4375 13.8125 C-4.82411119 10.01237666 -4.82411119 10.01237666 -8.125 8.1875 C-10.44887947 7.79362212 -12.78293749 7.45263915 -15.125 7.1875 C-15.125 6.8575 -15.125 6.5275 -15.125 6.1875 C-10.175 6.1875 -5.225 6.1875 -0.125 6.1875 C-3.425 4.5375 -6.725 2.8875 -10.125 1.1875 C-10.125 0.5275 -10.125 -0.1325 -10.125 -0.8125 C-14.085 -0.8125 -18.045 -0.8125 -22.125 -0.8125 C-16.13292383 -6.80457617 -6.45847521 -3.74591562 0 0 Z " fill="#52A8C7" transform="translate(236.125,70.8125)"/>
<path d="M0 0 C13.56886228 -0.19760479 13.56886228 -0.19760479 18 1 C18.33 1.66 18.66 2.32 19 3 C19.99 3.33 20.98 3.66 22 4 C22 4.99 22 5.98 22 7 C23.32 7 24.64 7 26 7 C25.34 8.65 24.68 10.3 24 12 C21.69 11.67 19.38 11.34 17 11 C17 10.34 17 9.68 17 9 C16.443125 9.01160156 15.88625 9.02320313 15.3125 9.03515625 C10.10221657 9.09676433 5.1562049 8.74999344 0 8 C0 7.67 0 7.34 0 7 C1.65 7 3.3 7 5 7 C5.144375 6.360625 5.28875 5.72125 5.4375 5.0625 C6 3 6 3 7 2 C4.69 1.67 2.38 1.34 0 1 C0 0.67 0 0.34 0 0 Z " fill="#2C94B7" transform="translate(218,50)"/>
<path d="M0 0 C2.35999986 1.97469376 4.69018132 3.96771768 7 6 C7.64453125 6.56460938 8.2890625 7.12921875 8.953125 7.7109375 C13.12587452 11.58563348 14.9670017 14.37589814 16 20 C14.02 20.66 12.04 21.32 10 22 C9.54625 21.195625 9.0925 20.39125 8.625 19.5625 C7.25274335 16.91143428 7.25274335 16.91143428 5 16 C5 15.34 5 14.68 5 14 C3.68 14 2.36 14 1 14 C-1.61895048 9.22426677 -0.83119431 5.15565119 0 0 Z " fill="#309ABF" transform="translate(185,163)"/>
<path d="M0 0 C0.66 0 1.32 0 2 0 C2.33 0.66 2.66 1.32 3 2 C8.75702475 4.68575485 14.72991245 5.502374 21 6 C21.33 7.98 21.66 9.96 22 12 C19.77090129 12.02714735 17.54170633 12.04646254 15.3125 12.0625 C14.07113281 12.07410156 12.82976562 12.08570313 11.55078125 12.09765625 C6.98869269 11.97218627 2.87601417 11.53945756 -1 9 C-2.25 6.875 -2.25 6.875 -3 5 C-2.34 4.67 -1.68 4.34 -1 4 C-0.67 4.33 -0.34 4.66 0 5 C0 3.35 0 1.7 0 0 Z " fill="#2595BC" transform="translate(135,185)"/>
<path d="M0 0 C2 3 2 3 2 5 C1.34 5 0.68 5 0 5 C-0.103125 5.763125 -0.20625 6.52625 -0.3125 7.3125 C-1.04364039 10.17059424 -1.76951913 11.15742885 -4 13 C-3.67 13.33 -3.34 13.66 -3 14 C-1.68 13.34 -0.36 12.68 1 12 C1.66 13.65 2.32 15.3 3 17 C-5.261959 24.66742597 -5.261959 24.66742597 -10 26 C-8.6875 23.0625 -8.6875 23.0625 -7 20 C-6.01 19.67 -5.02 19.34 -4 19 C-4 18.34 -4 17.68 -4 17 C-5.83700789 16.22757731 -5.83700789 16.22757731 -8 16 C-9.79252059 17.29209912 -9.79252059 17.29209912 -11 19 C-11 19.33 -11 19.66 -11 20 C-14.96 20 -18.92 20 -23 20 C-20.89601995 18.94800998 -18.78545579 17.90547309 -16.6328125 16.95703125 C-8.2450147 13.12895531 -3.72273485 8.47956272 0 0 Z " fill="#51A6C4" transform="translate(251,169)"/>
<path d="M0 0 C1.32 0.66 2.64 1.32 4 2 C3.01 2 2.02 2 1 2 C1 2.66 1 3.32 1 4 C0.34 4 -0.32 4 -1 4 C-2.23151854 7.84849545 -2.57443317 10.97896778 -2 15 C0.39549801 18.88940815 3.12661869 22.45316995 6 26 C7.32 25.67 8.64 25.34 10 25 C9.67 26.32 9.34 27.64 9 29 C5.58978257 28.21302675 2.31114834 27.12880057 -1 26 C-0.67 27.65 -0.34 29.3 0 31 C-0.99 31.66 -1.98 32.32 -3 33 C-4.32 30.69 -5.64 28.38 -7 26 C-6.34 25.67 -5.68 25.34 -5 25 C-5 23.68 -5 22.36 -5 21 C-5.66 21 -6.32 21 -7 21 C-6.505 19.515 -6.505 19.515 -6 18 C-5.34 18 -4.68 18 -4 18 C-4 13.71 -4 9.42 -4 5 C-3.34 5 -2.68 5 -2 5 C-2 4.01 -2 3.02 -2 2 C-1.34 2 -0.68 2 0 2 C0 1.34 0 0.68 0 0 Z " fill="#44A2C2" transform="translate(216,77)"/>
<path d="M0 0 C0.69416016 -0.00128906 1.38832031 -0.00257812 2.10351562 -0.00390625 C5.75697524 0.07497119 7.38684842 0.29956561 10.5 2.375 C7.53 2.375 4.56 2.375 1.5 2.375 C0.51 4.355 -0.48 6.335 -1.5 8.375 C4.44 9.365 4.44 9.365 10.5 10.375 C10.5 11.035 10.5 11.695 10.5 12.375 C9.74976563 12.29121094 8.99953125 12.20742188 8.2265625 12.12109375 C1.47307524 11.44914728 -4.78095649 11.40876587 -11.5 12.375 C-12.25 10.125 -12.25 10.125 -12.5 7.375 C-10.5625 5.0625 -10.5625 5.0625 -8.5 3.375 C-10.48 3.375 -12.46 3.375 -14.5 3.375 C-14.83 4.035 -15.16 4.695 -15.5 5.375 C-16.49 5.87 -16.49 5.87 -17.5 6.375 C-18.16 5.715 -18.82 5.055 -19.5 4.375 C-12.99963792 1.2900824 -7.13501663 -0.01296097 0 0 Z " fill="#52ACCB" transform="translate(224.5,48.625)"/>
<path d="M0 0 C6.64164678 1.70298635 13.5358143 5.69351511 18 11 C18.1875 13.6875 18.1875 13.6875 18 16 C17.67 15.34 17.34 14.68 17 14 C16.525625 14.556875 16.05125 15.11375 15.5625 15.6875 C12.46406375 17.27450393 11.78946266 16.94861497 8.5625 15.9375 C4.81585433 14.51550577 1.94983537 12.75952341 -1 10 C1.31 10.33 3.62 10.66 6 11 C6.66 9.35 7.32 7.7 8 6 C6.68 6 5.36 6 4 6 C4 5.01 4 4.02 4 3 C2.35 2.67 0.7 2.34 -1 2 C-0.67 1.34 -0.34 0.68 0 0 Z " fill="#3C9EBF" transform="translate(236,51)"/>
<path d="M0 0 C2.125 0.375 2.125 0.375 4 1 C4 1.99 4 2.98 4 4 C10.435 3.505 10.435 3.505 17 3 C17.33 3.99 17.66 4.98 18 6 C18.33 6 18.66 6 19 6 C19 7.65 19 9.3 19 11 C16.77144426 11.0814222 14.54202345 11.13938079 12.3125 11.1875 C11.07113281 11.22230469 9.82976562 11.25710937 8.55078125 11.29296875 C4.78646387 10.98238151 2.92655881 10.35011541 0 8 C-0.3125 5.3125 -0.3125 5.3125 0 3 C-0.66 2.67 -1.32 2.34 -2 2 C-1.34 1.34 -0.68 0.68 0 0 Z " fill="#2795BC" transform="translate(142,97)"/>
<path d="M0 0 C0.33 0 0.66 0 1 0 C1.07347656 0.90492187 1.07347656 0.90492187 1.1484375 1.828125 C1.22320312 2.62734375 1.29796875 3.4265625 1.375 4.25 C1.44460937 5.03890625 1.51421875 5.8278125 1.5859375 6.640625 C2.01507113 9.085877 2.78600638 10.84836903 4 13 C3.01 13.66 2.02 14.32 1 15 C1.33 15.99 1.66 16.98 2 18 C1.67 18.99 1.34 19.98 1 21 C4.82745451 22.74685308 8.12442723 23.34886333 12.3125 23.625 C13.38113281 23.69976562 14.44976562 23.77453125 15.55078125 23.8515625 C16.35902344 23.90054688 17.16726562 23.94953125 18 24 C13.26821064 26.77194068 9.20636693 26.29587464 4 25 C-2.37322632 22.04631191 -6.17225348 18.39316604 -9 12 C-9 11.34 -9 10.68 -9 10 C-8.34 10 -7.68 10 -7 10 C-7 10.99 -7 11.98 -7 13 C-6.34 13 -5.68 13 -5 13 C-5 12.34 -5 11.68 -5 11 C-4.0409375 10.443125 -4.0409375 10.443125 -3.0625 9.875 C0.11375748 6.9874932 -0.2754081 4.19997357 0 0 Z " fill="#44A4C6" transform="translate(141,84)"/>
<path d="M0 0 C0.66 0 1.32 0 2 0 C2.98120464 3.05263664 2.98120464 4.94736336 2 8 C3.32 8 4.64 8 6 8 C6.53012738 9.28788008 7.0488329 10.58046678 7.5625 11.875 C7.85253906 12.59429687 8.14257812 13.31359375 8.44140625 14.0546875 C9 16 9 16 8 18 C7.34 18 6.68 18 6 18 C6 19.32 6 20.64 6 22 C5.01 22 4.02 22 3 22 C2.67 22.66 2.34 23.32 2 24 C1.34 23.67 0.68 23.34 0 23 C-0.33 24.65 -0.66 26.3 -1 28 C-1.99 28.33 -2.98 28.66 -4 29 C-4 28.34 -4 27.68 -4 27 C-4.66 26.67 -5.32 26.34 -6 26 C-5.0925 25.29875 -4.185 24.5975 -3.25 23.875 C-0.08030474 21.25361695 1.87920111 18.50747509 4 15 C2.60667426 11.63279613 1.0210714 10.0140476 -2 8 C-1.67 6.68 -1.34 5.36 -1 4 C-1.66 4 -2.32 4 -3 4 C-2.67 3.01 -2.34 2.02 -2 1 C-1.34 1.33 -0.68 1.66 0 2 C0 1.34 0 0.68 0 0 Z " fill="#409EC0" transform="translate(174,158)"/>
<path d="M0 0 C7.425 0.99 7.425 0.99 15 2 C15.33 2.99 15.66 3.98 16 5 C14.625 6.5 14.625 6.5 13 8 C12.34 8 11.68 8 11 8 C10.67 9.65 10.34 11.3 10 13 C10.66 13.33 11.32 13.66 12 14 C10.02 14.99 10.02 14.99 8 16 C8.33 17.65 8.66 19.3 9 21 C8.01 20.67 7.02 20.34 6 20 C6 19.01 6 18.02 6 17 C5.34 17 4.68 17 4 17 C4 17.66 4 18.32 4 19 C1.36 19.99 -1.28 20.98 -4 22 C-4 21.34 -4 20.68 -4 20 C-3.34 20 -2.68 20 -2 20 C-2 19.34 -2 18.68 -2 18 C-1.34 18 -0.68 18 0 18 C0.268125 17.360625 0.53625 16.72125 0.8125 16.0625 C2 14 2 14 5 13 C5 12.34 5 11.68 5 11 C5.66 11 6.32 11 7 11 C7.33 10.01 7.66 9.02 8 8 C8.66 8 9.32 8 10 8 C10 7.34 10 6.68 10 6 C10.66 6 11.32 6 12 6 C12 5.34 12 4.68 12 4 C8.7 3.67 5.4 3.34 2 3 C1.67 3.99 1.34 4.98 1 6 C0.67 6 0.34 6 0 6 C0 4.02 0 2.04 0 0 Z " fill="#2895BD" transform="translate(140,125)"/>
<path d="M0 0 C4.67248931 2.82522609 7.65996398 5.67760044 11 10 C8.36 9.67 5.72 9.34 3 9 C2.67 9.66 2.34 10.32 2 11 C2.7763932 14.0745356 2.7763932 14.0745356 5 16 C0.86218946 16 -0.20919996 14.28490393 -3.1875 11.5 C-4.53908203 10.24703125 -4.53908203 10.24703125 -5.91796875 8.96875 C-6.60503906 8.3190625 -7.29210937 7.669375 -8 7 C-7.34 6.67 -6.68 6.34 -6 6 C-5.34 6.33 -4.68 6.66 -4 7 C-4 6.01 -4 5.02 -4 4 C-2.68 3.34 -1.36 2.68 0 2 C0 1.34 0 0.68 0 0 Z " fill="#45A2C1" transform="translate(177,58)"/>
<path d="M0 0 C-0.99 0.8971875 -0.99 0.8971875 -2 1.8125 C-4.3373846 3.87501834 -4.3373846 3.87501834 -4 7 C-4 7.66 -4 8.32 -4 9 C-4.86625 8.95875 -5.7325 8.9175 -6.625 8.875 C-10.12353543 9.00457539 -12.71109136 9.87878115 -16 11 C-16.66 10.67 -17.32 10.34 -18 10 C-16.73949648 6.21848945 -14.96767029 4.63043503 -12 2 C-9.375 0.75 -9.375 0.75 -7 0 C-3.86650268 -1.04449911 -3.01031744 -0.93423645 0 0 Z " fill="#2B93B7" transform="translate(217,52)"/>
<path d="M0 0 C0.66 0.99 1.32 1.98 2 3 C1.67 3.66 1.34 4.32 1 5 C0.34 5 -0.32 5 -1 5 C-0.42415568 7.38564077 0.22227595 9.66682784 1 12 C0.34 12 -0.32 12 -1 12 C-1.66 13.98 -2.32 15.96 -3 18 C-3.66 18 -4.32 18 -5 18 C-5.33 19.32 -5.66 20.64 -6 22 C-6.33 22 -6.66 22 -7 22 C-7.125 14.375 -7.125 14.375 -6 11 C-6.99 11.495 -6.99 11.495 -8 12 C-5.84682713 3.64989059 -5.84682713 3.64989059 -2.3125 0.9375 C-1.549375 0.628125 -0.78625 0.31875 0 0 Z " fill="#2795BD" transform="translate(141,144)"/>
<path d="M0 0 C4.31134737 1.56776268 8.05250912 3.69109024 12 6 C17.69423943 8.84711972 28.09340079 7.83201402 34.125 6.10546875 C36.78058418 4.95055853 36.78058418 4.95055853 40 3 C40 3.66 40 4.32 40 5 C31.98023109 9.47857225 24.17506442 10.86830263 15 10 C12.93828668 9.34086489 11.01043271 8.53176824 9.02734375 7.66796875 C5.42039192 6.4795511 1.75070071 6.76558121 -2 7 C-2 5 -2 5 0 3 C0 2.01 0 1.02 0 0 Z " fill="#67B2CE" transform="translate(130,109)"/>
<path d="M0 0 C1.50156874 3.00313748 1.09281204 5.79067522 1.0625 9.125 C1.05347656 10.40632812 1.04445312 11.68765625 1.03515625 13.0078125 C1.02355469 13.99523437 1.01195312 14.98265625 1 16 C-0.32 15.67 -1.64 15.34 -3 15 C-3 14.34 -3 13.68 -3 13 C-3.99 12.67 -4.98 12.34 -6 12 C-5.67 11.01 -5.34 10.02 -5 9 C-5.09406754 6.70546505 -5.09406754 6.70546505 -5.4375 4.3125 C-5.53933594 3.50425781 -5.64117187 2.69601563 -5.74609375 1.86328125 C-5.82988281 1.24839844 -5.91367188 0.63351563 -6 0 C-3 -1 -3 -1 0 0 Z " fill="#2496BD" transform="translate(242,152)"/>
<path d="M0 0 C0.33 0.66 0.66 1.32 1 2 C1.66 2.33 2.32 2.66 3 3 C2.34 4.98 1.68 6.96 1 9 C0.236875 9 -0.52625 9 -1.3125 9 C-4.07112598 9.69790927 -4.07112598 9.69790927 -4.96484375 11.70703125 C-6.2236591 15.08266048 -7.15085334 18.50120125 -8 22 C-8.66 22 -9.32 22 -10 22 C-10 26.62 -10 31.24 -10 36 C-10.33 36 -10.66 36 -11 36 C-11.4542495 23.23054188 -10.13906624 13.83919203 -3 3 C-2.03017732 1.97070706 -1.0384743 0.95998496 0 0 Z " fill="#58ACC8" transform="translate(124,60)"/>
<path d="M0 0 C1.9453125 0.2421875 1.9453125 0.2421875 4.125 0.875 C4.84945312 1.07867187 5.57390625 1.28234375 6.3203125 1.4921875 C6.87460938 1.65976563 7.42890625 1.82734375 8 2 C8 2.66 8 3.32 8 4 C8.66 4.33 9.32 4.66 10 5 C9.01 7.31 8.02 9.62 7 12 C1.37234043 10.53191489 1.37234043 10.53191489 -0.3125 8.125 C-0.539375 7.42375 -0.76625 6.7225 -1 6 C-1.2475 5.29875 -1.495 4.5975 -1.75 3.875 C-1.8325 3.25625 -1.915 2.6375 -2 2 C-1.34 1.34 -0.68 0.68 0 0 Z " fill="#2A97BC" transform="translate(180,66)"/>
<path d="M0 0 C2.31 1.65 4.62 3.3 7 5 C6.01 5.495 6.01 5.495 5 6 C5 7.65 5 9.3 5 11 C5.66 11.33 6.32 11.66 7 12 C5.68 11.67 4.36 11.34 3 11 C3.33 12.32 3.66 13.64 4 15 C5.65 15 7.3 15 9 15 C8.67 15.66 8.34 16.32 8 17 C3.84033414 16.46160353 1.4980346 15.18381652 -1.75 12.5625 C-2.52859375 11.94503906 -3.3071875 11.32757813 -4.109375 10.69140625 C-6 9 -6 9 -7 7 C-4.69 7.33 -2.38 7.66 0 8 C1.08174162 4.63458162 0.92538169 3.70152678 0 0 Z " fill="#55A9C6" transform="translate(130,179)"/>
<path d="M0 0 C0.33 0.99 0.66 1.98 1 3 C0.34 3 -0.32 3 -1 3 C-1 3.66 -1 4.32 -1 5 C-1.99 5 -2.98 5 -4 5 C-4 6.32 -4 7.64 -4 9 C-6.875 9.625 -6.875 9.625 -10 10 C-10.66 9.34 -11.32 8.68 -12 8 C-12.66 7.67 -13.32 7.34 -14 7 C-13.34 6.01 -12.68 5.02 -12 4 C-11.01 4 -10.02 4 -9 4 C-9 3.01 -9 2.02 -9 1 C-5.64919071 -1.10976881 -3.77897651 -1.0497157 0 0 Z " fill="#2595BD" transform="translate(216,146)"/>
<path d="M0 0 C4.52560314 3.56864741 8.79156002 7.18734003 12 12 C8.06198104 11.08418164 5.78621412 10.08243533 3.3125 6.9375 C1.26510303 3.7829173 1.26510303 3.7829173 -2 3 C-2 2.34 -2 1.68 -2 1 C-6.15626368 -0.00926479 -10.04365094 -0.10239579 -14.3125 -0.0625 C-15.56675781 -0.05347656 -16.82101563 -0.04445313 -18.11328125 -0.03515625 C-19.06589844 -0.02355469 -20.01851562 -0.01195313 -21 0 C-15.54199371 -5.45800629 -6.14702298 -3.51728053 0 0 Z " fill="#6EB4CC" transform="translate(164,70)"/>
<path d="M0 0 C1.32 0 2.64 0 4 0 C4.66 0.99 5.32 1.98 6 3 C6.99 3.33 7.98 3.66 9 4 C9 5.65 9 7.3 9 9 C2.97463002 9.602537 2.97463002 9.602537 0.19921875 7.88671875 C-1.25599455 6.65378147 -2.63479157 5.33191067 -4 4 C-3.34 3.67 -2.68 3.34 -2 3 C-1.67 2.34 -1.34 1.68 -1 1 C-0.67 0.67 -0.34 0.34 0 0 Z " fill="#2497BD" transform="translate(212,169)"/>
<path d="M0 0 C0.66 0.33 1.32 0.66 2 1 C2 1.66 2 2.32 2 3 C2.66 3 3.32 3 4 3 C3.25 7.75 3.25 7.75 1 10 C0.01 10 -0.98 10 -2 10 C-2 11.32 -2 12.64 -2 14 C-2.99 14.495 -2.99 14.495 -4 15 C-4 15.66 -4 16.32 -4 17 C-4.99 16.67 -5.98 16.34 -7 16 C-7 14.02 -7 12.04 -7 10 C-6.01 9.67 -5.02 9.34 -4 9 C-4 6.69 -4 4.38 -4 2 C-3.67 2.99 -3.34 3.98 -3 5 C-2.01 4.34 -1.02 3.68 0 3 C0 2.01 0 1.02 0 0 Z " fill="#2596BC" transform="translate(169,159)"/>
<path d="M0 0 C1.9375 0.8125 1.9375 0.8125 4 2 C4.33 2.99 4.66 3.98 5 5 C6.99665314 6.68538601 6.99665314 6.68538601 9 8 C7.35 8 5.7 8 4 8 C4 8.66 4 9.32 4 10 C0.66666667 10 -2.66666667 10 -6 10 C-5.42655063 7.13275314 -5.1385485 6.1385485 -3 4 C-2.01 4 -1.02 4 0 4 C0 2.68 0 1.36 0 0 Z " fill="#2596BC" transform="translate(170,87)"/>
<path d="M0 0 C0.66 0.33 1.32 0.66 2 1 C0.92598892 3.91517292 0.22189824 5.77810176 -2 8 C-2.6425235 10.06874034 -2.6425235 10.06874034 -3 12 C-3.66 12 -4.32 12 -5 12 C-5.33 12.99 -5.66 13.98 -6 15 C-8 14 -8 14 -9 12 C-9.66 11.34 -10.32 10.68 -11 10 C-9.79618552 7.50638429 -8.54571278 5.31856917 -7 3 C-3.875 2.8125 -3.875 2.8125 -1 3 C-0.67 2.01 -0.34 1.02 0 0 Z " fill="#2695BB" transform="translate(128,134)"/>
<path d="M0 0 C4.68096972 1.90706174 8.07018669 4.80659424 10.06640625 9.515625 C10.71473747 11.29535777 11.33122167 13.08712372 11.91015625 14.890625 C12.80291031 17.19633704 12.80291031 17.19633704 15.12109375 17.796875 C15.74113281 17.86390625 16.36117187 17.9309375 17 18 C14.69 18.33 12.38 18.66 10 19 C10 16.69 10 14.38 10 12 C8.35 12 6.7 12 5 12 C4.731875 10.865625 4.46375 9.73125 4.1875 8.5625 C3.795625 7.386875 3.40375 6.21125 3 5 C2.01 4.67 1.02 4.34 0 4 C0 2.68 0 1.36 0 0 Z " fill="#4CA5C4" transform="translate(197,105)"/>
<path d="M0 0 C1.67542976 0.28604898 3.34385343 0.61781233 5 1 C5 1.66 5 2.32 5 3 C4.34 3 3.68 3 3 3 C2.67 3.99 2.34 4.98 2 6 C1.34 6 0.68 6 0 6 C-0.28617188 6.71542969 -0.57234375 7.43085938 -0.8671875 8.16796875 C-2.578125 12.4453125 -4.2890625 16.72265625 -6 21 C-6.66 20.67 -7.32 20.34 -8 20 C-7.67 17.36 -7.34 14.72 -7 12 C-6.34 12 -5.68 12 -5 12 C-5 10.35 -5 8.7 -5 7 C-4.01 6.67 -3.02 6.34 -2 6 C-1.855625 5.195625 -1.71125 4.39125 -1.5625 3.5625 C-1 1 -1 1 0 0 Z " fill="#54A9C2" transform="translate(130,134)"/>
<path d="M0 0 C-0.57621094 0.4228125 -1.15242187 0.845625 -1.74609375 1.28125 C-3.9304626 2.94697321 -5.99925221 4.68720425 -8.0625 6.5 C-8.73410156 7.0878125 -9.40570313 7.675625 -10.09765625 8.28125 C-11.78716479 9.80770536 -13.40779364 11.37307263 -15 13 C-14.67 10.69 -14.34 8.38 -14 6 C-13.34 6 -12.68 6 -12 6 C-12.66 4.35 -13.32 2.7 -14 1 C-13.05125 0.855625 -12.1025 0.71125 -11.125 0.5625 C-3.83333333 -0.75 -3.83333333 -0.75 0 0 Z " fill="#52AAC4" transform="translate(213,61)"/>
<path d="M0 0 C0.33 0.66 0.66 1.32 1 2 C1.99 1.34 2.98 0.68 4 0 C7.6875 0.375 7.6875 0.375 11 1 C11 1.66 11 2.32 11 3 C10.01 3.33 9.02 3.66 8 4 C6.96986723 5.64821244 5.96885372 7.31503702 5 9 C4.01 9.495 4.01 9.495 3 10 C2.67 8.02 2.34 6.04 2 4 C1.34 4 0.68 4 0 4 C-0.33 4.99 -0.66 5.98 -1 7 C-3 4 -3 4 -3 2 C-2.01 1.34 -1.02 0.68 0 0 Z " fill="#3098BD" transform="translate(128,58)"/>
<path d="M0 0 C1.65 0.33 3.3 0.66 5 1 C5.33 3.31 5.66 5.62 6 8 C2.375 11 2.375 11 -1 11 C-1.66 8.03 -2.32 5.06 -3 2 C-2.01 2 -1.02 2 0 2 C0 1.34 0 0.68 0 0 Z " fill="#2596BC" transform="translate(166,148)"/>
<path d="M0 0 C2.97 0.495 2.97 0.495 6 1 C1.90473413 5.89434213 -2.26357085 10.70720334 -7 15 C-7.33 15 -7.66 15 -8 15 C-8.20086443 11.28400809 -8.1519437 10.22791555 -6 7 C-5.01 6.67 -4.02 6.34 -3 6 C-2.67 5.01 -2.34 4.02 -2 3 C-1.67 3 -1.34 3 -1 3 C-0.67 2.01 -0.34 1.02 0 0 Z " fill="#54A9C8" transform="translate(233,102)"/>
<path d="M0 0 C0 0.99 0 1.98 0 3 C1.32 3 2.64 3 4 3 C3.34 4.65 2.68 6.3 2 8 C-0.4375 7.625 -0.4375 7.625 -3 7 C-3.33 6.34 -3.66 5.68 -4 5 C-5.86492402 4.61004898 -5.86492402 4.61004898 -8 4.5 C-10.1875 4.34375 -10.1875 4.34375 -12 4 C-12.33 3.34 -12.66 2.68 -13 2 C-8.46298506 0.54815522 -4.81938524 -0.23509196 0 0 Z " fill="#2595C0" transform="translate(240,54)"/>
<path d="M0 0 C1.98 0.99 1.98 0.99 4 2 C3.01 2 2.02 2 1 2 C0.67 1.34 0.34 0.68 0 0 Z M1 3 C3.875 2.875 3.875 2.875 7 3 C9 5 9 5 9 9 C9.33 9.99 9.66 10.98 10 12 C6.28111761 11.49287967 3.26545761 10.88391785 0 9 C0.33 7.02 0.66 5.04 1 3 Z " fill="#3EA0BF" transform="translate(205,186)"/>
<path d="M0 0 C1.9375 0.375 1.9375 0.375 4 1 C5.95646582 4.91293163 5.58495894 9.8901136 4.43359375 14.04296875 C1.88084919 20.31122634 1.88084919 20.31122634 -1 22 C-3.71808433 22.23729308 -6.2604872 22.13473014 -9 22 C-9 21.34 -9 20.68 -9 20 C-8.45730469 19.81824219 -7.91460937 19.63648438 -7.35546875 19.44921875 C-6.64003906 19.19785156 -5.92460937 18.94648438 -5.1875 18.6875 C-4.12595703 18.32205078 -4.12595703 18.32205078 -3.04296875 17.94921875 C-0.81121777 16.91228665 0.43664526 15.88925044 2 14 C3.78911556 8.50485935 2.19140653 5.08406316 0 0 Z " fill="#59A7C3" transform="translate(231,151)"/>
<path d="M0 0 C0.93423645 3.01031744 1.04449911 3.86650268 0 7 C0.66 7.33 1.32 7.66 2 8 C1.01 9.485 1.01 9.485 0 11 C-0.34222445 15.65417169 -0.34222445 15.65417169 1 20 C0.0625 22.125 0.0625 22.125 -1 24 C-4.32126808 18.74132554 -4.8819019 14.05263198 -4 8 C-2.91251947 5.0812211 -1.59820541 2.69697164 0 0 Z " fill="#63B0C9" transform="translate(135,147)"/>
<path d="M0 0 C2 3 2 3 2 6 C1.01 6 0.02 6 -1 6 C-1.33 6.99 -1.66 7.98 -2 9 C-2.66 9 -3.32 9 -4 9 C-4 10.65 -4 12.3 -4 14 C-3.34 14 -2.68 14 -2 14 C-1.67 15.65 -1.34 17.3 -1 19 C-1.763125 18.195625 -2.52625 17.39125 -3.3125 16.5625 C-5.79430898 13.83200976 -5.79430898 13.83200976 -9 13 C-9 12.34 -9 11.68 -9 11 C-8.01 10.34 -7.02 9.68 -6 9 C-5.27034634 6.43717258 -5.27034634 6.43717258 -5 4 C-4.01 4 -3.02 4 -2 4 C-2 3.34 -2 2.68 -2 2 C-1.34 2 -0.68 2 0 2 C0 1.34 0 0.68 0 0 Z " fill="#49A4C8" transform="translate(159,130)"/>
<path d="M0 0 C7.425 0.99 7.425 0.99 15 2 C15.33 2.99 15.66 3.98 16 5 C14.625 6.5 14.625 6.5 13 8 C12.34 8 11.68 8 11 8 C10.7525 8.639375 10.505 9.27875 10.25 9.9375 C9 12 9 12 6.875 12.75 C5.946875 12.87375 5.946875 12.87375 5 13 C5 12.34 5 11.68 5 11 C5.66 11 6.32 11 7 11 C7.33 10.01 7.66 9.02 8 8 C8.66 8 9.32 8 10 8 C10 7.34 10 6.68 10 6 C10.66 6 11.32 6 12 6 C12 5.34 12 4.68 12 4 C8.7 3.67 5.4 3.34 2 3 C1.67 3.99 1.34 4.98 1 6 C0.67 6 0.34 6 0 6 C0 4.02 0 2.04 0 0 Z " fill="#71B8D1" transform="translate(140,125)"/>
<path d="M0 0 C0.33 0.66 0.66 1.32 1 2 C-0.23723976 5.71171927 -2.2553349 7.2553349 -5 10 C-6.29519995 12.16620544 -6.29519995 12.16620544 -7 14 C-8.32 13.67 -9.64 13.34 -11 13 C-11 14.65 -11 16.3 -11 18 C-11.99 17.67 -12.98 17.34 -14 17 C-12.52778565 11.97769914 -9.5510349 9.19721778 -5.875 5.6875 C-5.31167969 5.13771484 -4.74835938 4.58792969 -4.16796875 4.02148438 C-2.78537942 2.67404562 -1.39359084 1.33605727 0 0 Z " fill="#4DA2BD" transform="translate(132,124)"/>
<path d="M0 0 C2 3 2 3 1.5625 5.8125 C-0.48664463 9.99275505 -3.07485223 12.52138702 -7 15 C-10.4375 15.875 -10.4375 15.875 -13 16 C-13.33 15.34 -13.66 14.68 -14 14 C-12.35 13.67 -10.7 13.34 -9 13 C-9 12.34 -9 11.68 -9 11 C-7.68 11.33 -6.36 11.66 -5 12 C-5.33 11.01 -5.66 10.02 -6 9 C-5.01 9 -4.02 9 -3 9 C-3 7.68 -3 6.36 -3 5 C-2.01 5 -1.02 5 0 5 C0 3.35 0 1.7 0 0 Z " fill="#5DACC6" transform="translate(170,164)"/>
<path d="M0 0 C-0.3125 1.9375 -0.3125 1.9375 -1 4 C-1.99 4.33 -2.98 4.66 -4 5 C-5.71567661 8.50294871 -5.71567661 8.50294871 -7 12 C-7.99 12 -8.98 12 -10 12 C-10.33 15.63 -10.66 19.26 -11 23 C-11.33 23 -11.66 23 -12 23 C-12.51006928 16.08572751 -12.16583352 10.7280211 -8 5 C-3.23114355 0 -3.23114355 0 0 0 Z " fill="#70B9CE" transform="translate(143,70)"/>
<path d="M0 0 C0.66 0 1.32 0 2 0 C2.98120464 3.05263664 2.98120464 4.94736336 2 8 C3.32 8 4.64 8 6 8 C6.625 10.375 6.625 10.375 7 13 C6.34 13.66 5.68 14.32 5 15 C3.76302083 13.47005208 2.52604167 11.94010417 1.2890625 10.41015625 C0.0333609 8.86733563 0.0333609 8.86733563 -2 8 C-1.67 6.68 -1.34 5.36 -1 4 C-1.66 4 -2.32 4 -3 4 C-2.67 3.01 -2.34 2.02 -2 1 C-1.34 1.33 -0.68 1.66 0 2 C0 1.34 0 0.68 0 0 Z " fill="#3FA2C4" transform="translate(174,158)"/>
<path d="M0 0 C2.31 0.66 4.62 1.32 7 2 C7 2.66 7 3.32 7 4 C7.99 4.33 8.98 4.66 10 5 C10 5.99 10 6.98 10 8 C10.99 8.33 11.98 8.66 13 9 C12.67 10.32 12.34 11.64 12 13 C11.51789063 12.50628906 11.03578125 12.01257813 10.5390625 11.50390625 C9.90742188 10.86324219 9.27578125 10.22257813 8.625 9.5625 C7.99851563 8.92441406 7.37203125 8.28632813 6.7265625 7.62890625 C5.08276939 5.92117824 5.08276939 5.92117824 3 5 C2.67 5.99 2.34 6.98 2 8 C1.67 8 1.34 8 1 8 C0.67 5.36 0.34 2.72 0 0 Z " fill="#51A8C2" transform="translate(183,175)"/>
<path d="M0 0 C0.66 0.33 1.32 0.66 2 1 C1.34 2.65 0.68 4.3 0 6 C-0.99 6 -1.98 6 -3 6 C-3.33 7.32 -3.66 8.64 -4 10 C-4.66 10 -5.32 10 -6 10 C-6 10.99 -6 11.98 -6 13 C-9.13349732 14.04449911 -9.98968256 13.93423645 -13 13 C-12.67 11.68 -12.34 10.36 -12 9 C-10.68 9.99 -9.36 10.98 -8 12 C-7.938125 11.278125 -7.87625 10.55625 -7.8125 9.8125 C-6.74812129 6.12811217 -4.8134208 4.53894072 -2 2 C-1.34 1.34 -0.68 0.68 0 0 Z " fill="#68B3CB" transform="translate(212,70)"/>
<path d="M0 0 C0.76441406 0.00644531 1.52882812 0.01289063 2.31640625 0.01953125 C4.4375 0.1875 4.4375 0.1875 7.4375 1.1875 C7.4375 2.1775 7.4375 3.1675 7.4375 4.1875 C6.921875 4.0225 6.40625 3.8575 5.875 3.6875 C0.1066423 2.46302328 0.1066423 2.46302328 -5.27734375 4.3046875 C-6.73478964 5.56614434 -8.1511786 6.87464289 -9.5625 8.1875 C-10.2225 8.1875 -10.8825 8.1875 -11.5625 8.1875 C-11.5625 6.8675 -11.5625 5.5475 -11.5625 4.1875 C-10.5725 4.1875 -9.5825 4.1875 -8.5625 4.1875 C-8.5625 3.5275 -8.5625 2.8675 -8.5625 2.1875 C-5.5723145 0.46422681 -3.44216022 -0.06406728 0 0 Z " fill="#5FACC3" transform="translate(223.5625,146.8125)"/>
<path d="M0 0 C0 1.98 0 3.96 0 6 C-0.99 6 -1.98 6 -3 6 C-2.9175 6.763125 -2.835 7.52625 -2.75 8.3125 C-3 11 -3 11 -4.875 12.625 C-5.57625 13.07875 -6.2775 13.5325 -7 14 C-7.66 14.99 -8.32 15.98 -9 17 C-9.33 15.68 -9.66 14.36 -10 13 C-8.68 12.34 -7.36 11.68 -6 11 C-6.22429687 10.41734375 -6.44859375 9.8346875 -6.6796875 9.234375 C-7 7 -7 7 -5.8203125 5.078125 C-5.26085937 4.47484375 -4.70140625 3.8715625 -4.125 3.25 C-3.57070312 2.63640625 -3.01640625 2.0228125 -2.4453125 1.390625 C-1 0 -1 0 0 0 Z " fill="#2396BC" transform="translate(157,128)"/>
<path d="M0 0 C0.66 0.66 1.32 1.32 2 2 C1.67 2.66 1.34 3.32 1 4 C-3.36886712 5.19150921 -5.95634201 5.021829 -10 3 C-10 2.34 -10 1.68 -10 1 C-6.24391637 -0.82438348 -4.01050192 -1.30070333 0 0 Z " fill="#2397C1" transform="translate(231,142)"/>
<path d="M0 0 C0 0.66 0 1.32 0 2 C0.99 2 1.98 2 3 2 C3 2.99 3 3.98 3 5 C2.0925 5.144375 1.185 5.28875 0.25 5.4375 C-2.85383236 5.91924539 -2.85383236 5.91924539 -5.25 6.625 C-7 7 -7 7 -9 6 C-7.34548768 1.03646304 -5.15148826 0 0 0 Z " fill="#2397BE" transform="translate(208,56)"/>
<path d="M0 0 C1.2065625 0.0309375 1.2065625 0.0309375 2.4375 0.0625 C2.4375 0.7225 2.4375 1.3825 2.4375 2.0625 C-4.44252171 4.68346065 -11.28426039 4.24420362 -18.5625 4.0625 C-18.8925 3.4025 -19.2225 2.7425 -19.5625 2.0625 C-18.41910156 2.00191406 -17.27570313 1.94132813 -16.09765625 1.87890625 C-14.60675695 1.79451572 -13.11587225 1.70986698 -11.625 1.625 C-10.87025391 1.58568359 -10.11550781 1.54636719 -9.33789062 1.50585938 C-5.88842621 1.30476952 -3.1634109 0.07715636 0 0 Z " fill="#5BA7C2" transform="translate(235.5625,194.9375)"/>
<path d="M0 0 C0 0.99 0 1.98 0 3 C0.3062434 4.33981486 0.63451555 5.67511887 1 7 C3.97 7.495 3.97 7.495 7 8 C6.1875 9.9375 6.1875 9.9375 5 12 C4.01 12.33 3.02 12.66 2 13 C2 12.01 2 11.02 2 10 C1.01 10 0.02 10 -1 10 C-1 9.01 -1 8.02 -1 7 C-2.65 7 -4.3 7 -6 7 C-4.02 4.69 -2.04 2.38 0 0 Z " fill="#4FA8CA" transform="translate(239,114)"/>
<path d="M0 0 C0.99 0.33 1.98 0.66 3 1 C4.1875 4.0625 4.1875 4.0625 5 7 C4.01 7.99 3.02 8.98 2 10 C1.34 9.01 0.68 8.02 0 7 C-0.66 7 -1.32 7 -2 7 C-2.6875 5.1875 -2.6875 5.1875 -3 3 C-1.5625 1.25 -1.5625 1.25 0 0 Z " fill="#2596BD" transform="translate(140,165)"/>
<path d="M0 0 C2.55698285 3.78667689 2.03499684 7.4122334 1.625 11.75 C1.56828125 12.44738281 1.5115625 13.14476563 1.453125 13.86328125 C1.31232128 15.57639312 1.15754028 17.28834611 1 19 C0.67 19 0.34 19 0 19 C-0.07347656 17.95199219 -0.07347656 17.95199219 -0.1484375 16.8828125 C-0.26058594 15.51769531 -0.26058594 15.51769531 -0.375 14.125 C-0.44460937 13.22007813 -0.51421875 12.31515625 -0.5859375 11.3828125 C-0.79568132 8.82058097 -0.79568132 8.82058097 -3 7 C-2.67 6.01 -2.34 5.02 -2 4 C-2.33 3.01 -2.66 2.02 -3 1 C-2.01 0.67 -1.02 0.34 0 0 Z " fill="#2794B9" transform="translate(200,109)"/>
<path d="M0 0 C0.763125 0.20625 1.52625 0.4125 2.3125 0.625 C2.3125 2.605 2.3125 4.585 2.3125 6.625 C0.0025 6.625 -2.3075 6.625 -4.6875 6.625 C-5.0175 4.975 -5.3475 3.325 -5.6875 1.625 C-2.6875 -0.375 -2.6875 -0.375 0 0 Z M-1.6875 0.625 C-1.3575 1.615 -1.0275 2.605 -0.6875 3.625 C-0.6875 2.635 -0.6875 1.645 -0.6875 0.625 C-1.0175 0.625 -1.3475 0.625 -1.6875 0.625 Z " fill="#2697BB" transform="translate(243.6875,115.375)"/>
<path d="M0 0 C0.6875 1.625 0.6875 1.625 1 4 C0.06553465 6.03144641 -0.93224776 8.03533587 -2 10 C-2 10.66 -2 11.32 -2 12 C-2.66 12 -3.32 12 -4 12 C-4 16.62 -4 21.24 -4 26 C-4.33 26 -4.66 26 -5 26 C-5.6071277 8.93296563 -5.6071277 8.93296563 -2 2 C-1.34 1.34 -0.68 0.68 0 0 Z " fill="#7ABCD1" transform="translate(118,70)"/>
<path d="M0 0 C2.4375 0.8125 2.4375 0.8125 5 2 C5.33 2.99 5.66 3.98 6 5 C4.35 5.33 2.7 5.66 1 6 C1 6.99 1 7.98 1 9 C-1.475 8.01 -1.475 8.01 -4 7 C-4 6.34 -4 5.68 -4 5 C-3.01 4.34 -2.02 3.68 -1 3 C-0.67 2.01 -0.34 1.02 0 0 Z " fill="#2A94B8" transform="translate(172,56)"/>
<path d="M0 0 C0.68964844 0.20496094 1.37929687 0.40992188 2.08984375 0.62109375 C8.0949719 2.34272857 13.77409051 3.48967955 20 4 C19.67 4.66 19.34 5.32 19 6 C11.67372525 6.47266289 6.62615673 5.09866202 0 2 C0 1.34 0 0.68 0 0 Z " fill="#499CB8" transform="translate(137,185)"/>
<path d="M0 0 C1.75 1.75 1.75 1.75 3 4 C3 5.32 3 6.64 3 8 C1.125 8.625 1.125 8.625 -1 9 C-1.66 8.34 -2.32 7.68 -3 7 C-2.625 4.875 -2.625 4.875 -2 3 C-3.98 3.33 -5.96 3.66 -8 4 C-7.34 3.67 -6.68 3.34 -6 3 C-6 2.34 -6 1.68 -6 1 C-4 0 -4 0 0 0 Z " fill="#2495BA" transform="translate(181,133)"/>
<path d="M0 0 C0.99 0.66 1.98 1.32 3 2 C1.64978174 6.41889613 -0.26115668 8.34345343 -4 11 C-4.66 9.35 -5.32 7.7 -6 6 C-5.34 5.67 -4.68 5.34 -4 5 C-3.01 5.33 -2.02 5.66 -1 6 C-1.33 4.35 -1.66 2.7 -2 1 C-1.34 0.67 -0.68 0.34 0 0 Z " fill="#48A4C2" transform="translate(240,166)"/>
<path d="M0 0 C0.66 0.33 1.32 0.66 2 1 C1.57351992 4.09357189 1.07028627 7.0594155 0 10 C-2.5625 11.375 -2.5625 11.375 -5 12 C-5.33 12.99 -5.66 13.98 -6 15 C-6 14.34 -6 13.68 -6 13 C-6.66 12.67 -7.32 12.34 -8 12 C-7.50628906 11.46890625 -7.01257813 10.9378125 -6.50390625 10.390625 C-5.86324219 9.68421875 -5.22257813 8.9778125 -4.5625 8.25 C-3.92441406 7.55390625 -3.28632813 6.8578125 -2.62890625 6.140625 C-1.00918675 4.01207275 -0.41732744 2.60976595 0 0 Z " fill="#5DAEC8" transform="translate(234,89)"/>
<path d="M0 0 C2 1 2 1 3 2 C4.66617115 2.04063832 6.33388095 2.042721 8 2 C7.01 3.485 7.01 3.485 6 5 C5.01 5 4.02 5 3 5 C3 5.99 3 6.98 3 8 C2.01 8 1.02 8 0 8 C-1.4606285 5.35261084 -2 4.10551666 -2 1 C-1.34 0.67 -0.68 0.34 0 0 Z " fill="#399DC0" transform="translate(204,153)"/>
<path d="M0 0 C7.42686315 -0.10331031 14.63512596 0.00137301 22 1 C22 1.66 22 2.32 22 3 C21.24976563 2.91621094 20.49953125 2.83242188 19.7265625 2.74609375 C12.97307524 2.07414728 6.71904351 2.03376587 0 3 C0 2.01 0 1.02 0 0 Z " fill="#72B8CD" transform="translate(213,58)"/>
<path d="M0 0 C0.66 0 1.32 0 2 0 C1.57476184 1.60746056 1.13429874 3.21089836 0.6875 4.8125 C0.44386719 5.70582031 0.20023437 6.59914063 -0.05078125 7.51953125 C-1.0200819 10.05247738 -1.95009604 11.2716496 -4 13 C-5.42944945 10.64561267 -6.08661261 9.51967567 -5.625 6.75 C-5.41875 6.1725 -5.2125 5.595 -5 5 C-3.515 5.99 -3.515 5.99 -2 7 C-1.855625 6.21625 -1.71125 5.4325 -1.5625 4.625 C-1 2 -1 2 0 0 Z " fill="#51A7C7" transform="translate(260,98)"/>
<path d="M0 0 C1.32 0.66 2.64 1.32 4 2 C3.01 2 2.02 2 1 2 C1 2.66 1 3.32 1 4 C0.34 4 -0.32 4 -1 4 C-2.42242743 8.44508573 -2.78796719 13.07932998 -1 17.4375 C-0.67 17.953125 -0.34 18.46875 0 19 C-1.32 19 -2.64 19 -4 19 C-4 14.38 -4 9.76 -4 5 C-3.34 5 -2.68 5 -2 5 C-2 4.01 -2 3.02 -2 2 C-1.34 2 -0.68 2 0 2 C0 1.34 0 0.68 0 0 Z " fill="#6AB2C7" transform="translate(216,77)"/>
<path d="M0 0 C5.31027254 1.46032495 9.46330032 3.98320986 14 7 C10.06204091 8.22419163 7.83887763 7.48320272 4 6 C4 5.01 4 4.02 4 3 C2.35 2.67 0.7 2.34 -1 2 C-0.67 1.34 -0.34 0.68 0 0 Z " fill="#5EACC3" transform="translate(236,51)"/>
<path d="M0 0 C2.31 0 4.62 0 7 0 C7.144375 0.639375 7.28875 1.27875 7.4375 1.9375 C7.81007181 3.97545146 7.81007181 3.97545146 9 5 C9.04063832 6.66617115 9.042721 8.33388095 9 10 C6 9 6 9 5.0625 7.25 C4.711875 6.5075 4.36125 5.765 4 5 C2.6949419 3.31110128 1.36639342 1.6396721 0 0 Z " fill="#53A9C5" transform="translate(161,81)"/>
<path d="M0 0 C0.66666667 2.66666667 1.33333333 5.33333333 2 8 C-1.77545388 6.90931332 -4.47043472 6.0916909 -7 3 C-4.49955934 -0.00052879 -4.2621484 0 0 0 Z " fill="#51A8C6" transform="translate(167,56)"/>
<path d="M0 0 C0 1.65 0 3.3 0 5 C-0.99 5 -1.98 5 -3 5 C-2.67 6.32 -2.34 7.64 -2 9 C-3.32 8.67 -4.64 8.34 -6 8 C-6.36458333 3.50347222 -6.36458333 3.50347222 -4.6875 1.1875 C-3 0 -3 0 0 0 Z " fill="#2397BA" transform="translate(161,136)"/>
<path d="M0 0 C0.99 0 1.98 0 3 0 C4 3 4 3 3.0390625 5.04296875 C2.57242188 5.75066406 2.10578125 6.45835938 1.625 7.1875 C1.16351563 7.90292969 0.70203125 8.61835937 0.2265625 9.35546875 C-0.17820312 9.89816406 -0.58296875 10.44085938 -1 11 C-1.33 11 -1.66 11 -2 11 C-1.85957123 9.35369672 -1.71250671 7.70795821 -1.5625 6.0625 C-1.48128906 5.14597656 -1.40007812 4.22945313 -1.31640625 3.28515625 C-1 1 -1 1 0 0 Z " fill="#4EA8C5" transform="translate(127,66)"/>
<path d="M0 0 C0.66 0.33 1.32 0.66 2 1 C2.20086443 4.71599191 2.1519437 5.77208445 0 9 C-0.4603764 12.19806665 -0.4603764 12.19806665 -0.625 15.6875 C-0.69976562 16.86699219 -0.77453125 18.04648438 -0.8515625 19.26171875 C-0.92503906 20.61716797 -0.92503906 20.61716797 -1 22 C-1.33 22 -1.66 22 -2 22 C-2.05454409 19.64551325 -2.0939279 17.29232125 -2.125 14.9375 C-2.14820312 13.62652344 -2.17140625 12.31554687 -2.1953125 10.96484375 C-1.99417522 6.88175701 -1.27165462 3.85000947 0 0 Z " fill="#84C1D5" transform="translate(115,145)"/>
<path d="M0 0 C3 3.75 3 3.75 3 6 C2.113125 5.690625 1.22625 5.38125 0.3125 5.0625 C-5.30877947 3.42489586 -11.18552198 3.33225589 -17 3 C-17 2.67 -17 2.34 -17 2 C-11.39 2 -5.78 2 0 2 C0 1.34 0 0.68 0 0 Z " fill="#7DC1D6" transform="translate(235,128)"/>
<path d="M0 0 C3.82352106 1.5577308 6.29205593 3.91595258 9 7 C9 7.99 9 8.98 9 10 C4.125 7.25 4.125 7.25 3 5 C2.01 4.67 1.02 4.34 0 4 C0 2.68 0 1.36 0 0 Z " fill="#67B0CB" transform="translate(197,105)"/>
<path d="M0 0 C0.66 0.33 1.32 0.66 2 1 C1.34 2.65 0.68 4.3 0 6 C-3.96 6 -7.92 6 -12 6 C-10.68 5.34 -9.36 4.68 -8 4 C-7.31679687 3.63519531 -6.63359375 3.27039063 -5.9296875 2.89453125 C-5.25164062 2.53746094 -4.57359375 2.18039063 -3.875 1.8125 C-2.85019531 1.26529297 -2.85019531 1.26529297 -1.8046875 0.70703125 C-1.20914063 0.47371094 -0.61359375 0.24039063 0 0 Z " fill="#70B7CF" transform="translate(240,183)"/>
<path d="M0 0 C3.95684373 0.28263169 6.88001887 2.73092282 10 5 C10 5.33 10 5.66 10 6 C8.35 6 6.7 6 5 6 C5 5.34 5 4.68 5 4 C3.68 4 2.36 4 1 4 C0.67 4.66 0.34 5.32 0 6 C-0.66 4.68 -1.32 3.36 -2 2 C-1.34 1.34 -0.68 0.68 0 0 Z " fill="#47A1C0" transform="translate(211,165)"/>
<path d="M0 0 C7.48291572 6.15034169 7.48291572 6.15034169 10 10 C9.01 10.495 9.01 10.495 8 11 C7.34 10.67 6.68 10.34 6 10 C6 9.34 6 8.68 6 8 C5.01 8 4.02 8 3 8 C0 2.25 0 2.25 0 0 Z " fill="#4FA0C1" transform="translate(175,153)"/>
<path d="M0 0 C-2.31 0.66 -4.62 1.32 -7 2 C-7 2.99 -7 3.98 -7 5 C-6.34 5.33 -5.68 5.66 -5 6 C-5.33 6.99 -5.66 7.98 -6 9 C-7.70884005 7.37660195 -9.37446717 5.70680947 -11 4 C-11 3.34 -11 2.68 -11 2 C-9.54494642 1.47007308 -8.08581873 0.9513211 -6.625 0.4375 C-5.81289062 0.14746094 -5.00078125 -0.14257812 -4.1640625 -0.44140625 C-2 -1 -2 -1 0 0 Z " fill="#92C8D8" transform="translate(200,152)"/>
<path d="M0 0 C0 0.99 0 1.98 0 3 C-0.99 3.33 -1.98 3.66 -3 4 C-3.99 5.485 -3.99 5.485 -5 7 C-7.1640625 7.73046875 -7.1640625 7.73046875 -9.625 8.1875 C-10.44226563 8.34605469 -11.25953125 8.50460938 -12.1015625 8.66796875 C-12.72804687 8.77753906 -13.35453125 8.88710937 -14 9 C-14 8.34 -14 7.68 -14 7 C-13.030625 6.71125 -12.06125 6.4225 -11.0625 6.125 C-7.89335797 5.35785318 -7.89335797 5.35785318 -7 3 C-2.5 0 -2.5 0 0 0 Z " fill="#4FA5C0" transform="translate(207,147)"/>
<path d="M0 0 C4.75 0.875 4.75 0.875 7 2 C9.0374763 2.22858114 11.08040303 2.41024278 13.125 2.5625 C14.76855469 2.68818359 14.76855469 2.68818359 16.4453125 2.81640625 C17.28835937 2.87699219 18.13140625 2.93757813 19 3 C14.33486546 5.79046154 10.16507471 5.04302801 5 4 C1.875 2.5 1.875 2.5 0 1 C0 0.67 0 0.34 0 0 Z " fill="#81C0D2" transform="translate(140,105)"/>
<path d="M0 0 C-2.88035092 2.24027294 -5.84866512 4.16172132 -9 6 C-9.66 4.35 -10.32 2.7 -11 1 C-6.92630576 -1.03684712 -4.41062136 -1.0257259 0 0 Z " fill="#5BADC9" transform="translate(213,61)"/>
<path d="M0 0 C0.67546875 0.08378906 1.3509375 0.16757813 2.046875 0.25390625 C2.93890625 0.35574219 3.8309375 0.45757812 4.75 0.5625 C6.07257813 0.71912109 6.07257813 0.71912109 7.421875 0.87890625 C9.88432451 0.99456676 11.66538064 0.73638695 14 0 C13 3 13 3 11 4 C6.76028942 4.23553948 3.63821698 4.32845886 0 2 C0 1.34 0 0.68 0 0 Z " fill="#62ACC6" transform="translate(181,133)"/>
<path d="M0 0 C1.9375 0.375 1.9375 0.375 4 1 C5.17635297 3.35270593 5.13359359 4.820752 5.125 7.4375 C5.12757813 8.21996094 5.13015625 9.00242188 5.1328125 9.80859375 C5 12 5 12 4 15 C3.34 14.67 2.68 14.34 2 14 C2.226875 13.175 2.45375 12.35 2.6875 11.5 C3.10188624 6.85887407 1.83308334 4.25275335 0 0 Z " fill="#72B5CE" transform="translate(231,151)"/>
<path d="M0 0 C0.66 0.33 1.32 0.66 2 1 C2 1.66 2 2.32 2 3 C2.66 3.33 3.32 3.66 4 4 C1.03 6.475 1.03 6.475 -2 9 C-2.125 5.625 -2.125 5.625 -2 2 C-1.34 1.34 -0.68 0.68 0 0 Z " fill="#56AACC" transform="translate(248,113)"/>
<path d="M0 0 C0.66 1.98 1.32 3.96 2 6 C1.01 6.66 0.02 7.32 -1 8 C-2.98 4.535 -2.98 4.535 -5 1 C-3 0 -3 0 0 0 Z " fill="#4BA8C6" transform="translate(214,102)"/>
<path d="M0 0 C4.61513112 1.31860889 8.09897612 3.21355437 12 6 C9.52589282 6.63847927 7.53730112 7 5 7 C4.67 6.01 4.34 5.02 4 4 C3.01 3.67 2.02 3.34 1 3 C0.67 2.01 0.34 1.02 0 0 Z " fill="#6DB3CC" transform="translate(165,51)"/>
<path d="M0 0 C0.66 1.32 1.32 2.64 2 4 C0.35830472 6.02054804 -1.30911778 8.02043058 -3 10 C-3.33 10 -3.66 10 -4 10 C-4 8.02 -4 6.04 -4 4 C-3.01 4 -2.02 4 -1 4 C-0.67 2.68 -0.34 1.36 0 0 Z " fill="#5BACC9" transform="translate(182,180)"/>
<path d="M0 0 C0.99 0.99 1.98 1.98 3 3 C1.25 6.875 1.25 6.875 -1 8 C-1 7.01 -1 6.02 -1 5 C-1.66 5 -2.32 5 -3 5 C-2.625 3.0625 -2.625 3.0625 -2 1 C-1.34 0.67 -0.68 0.34 0 0 Z " fill="#43A1C3" transform="translate(251,181)"/>
<path d="M0 0 C1.66748747 2.50123121 2.89954361 4.77676357 4.125 7.5 C4.47820312 8.2734375 4.83140625 9.046875 5.1953125 9.84375 C6 12 6 12 6 15 C3.65514255 13.74940936 2.26023003 12.67345244 1.2890625 10.16015625 C0.37821971 6.61578975 0 3.7017542 0 0 Z " fill="#75B9D0" transform="translate(123,93)"/>
<path d="M0 0 C1.14926266 0.95421808 2.29430541 1.91352045 3.4375 2.875 C4.07558594 3.40867187 4.71367187 3.94234375 5.37109375 4.4921875 C7 6 7 6 8 8 C5.69 7.67 3.38 7.34 1 7 C1.33 5.68 1.66 4.36 2 3 C0.68 3 -0.64 3 -2 3 C-1 1 -1 1 0 0 Z " fill="#6BB6CD" transform="translate(176,82)"/>
<path d="M0 0 C0.33 0.99 0.66 1.98 1 3 C-2.06117568 5.62386487 -2.73173127 6 -7 6 C-7.66 5.67 -8.32 5.34 -9 5 C-7.87926138 4.16094435 -6.75325453 3.32892169 -5.625 2.5 C-4.99851563 2.0359375 -4.37203125 1.571875 -3.7265625 1.09375 C-2 0 -2 0 0 0 Z " fill="#65B1CB" transform="translate(134,54)"/>
<path d="M0 0 C1.98 1.65 3.96 3.3 6 5 C1.25 9 1.25 9 -1 9 C-0.67 6.03 -0.34 3.06 0 0 Z " fill="#439EC2" transform="translate(185,163)"/>
<path d="M0 0 C0.33 0 0.66 0 1 0 C1.08114106 1.77007714 1.13925505 3.54122098 1.1875 5.3125 C1.23970703 6.79169922 1.23970703 6.79169922 1.29296875 8.30078125 C1 11 1 11 -0.51171875 12.85546875 C-1.00285156 13.23316406 -1.49398437 13.61085937 -2 14 C-1.85923685 12.0412957 -1.7122324 10.08303907 -1.5625 8.125 C-1.48128906 7.03445312 -1.40007812 5.94390625 -1.31640625 4.8203125 C-1 2 -1 2 0 0 Z " fill="#63ADC6" transform="translate(254,154)"/>
<path d="M0 0 C4 4.75 4 4.75 4 7 C4.66 7 5.32 7 6 7 C6 7.66 6 8.32 6 9 C4.35 9.33 2.7 9.66 1 10 C0.67 6.7 0.34 3.4 0 0 Z " fill="#57A9C7" transform="translate(161,136)"/>
<path d="M0 0 C2 0 2 0 4.625 2.125 C7 5 7 5 7.4375 8.1875 C7 11 7 11 5 13 C4.731875 11.783125 4.46375 10.56625 4.1875 9.3125 C3.31505639 5.77878956 2.07843061 3.0231718 0 0 Z " fill="#79BDD3" transform="translate(158,149)"/>
<path d="M0 0 C0.99 0.33 1.98 0.66 3 1 C2.67 2.32 2.34 3.64 2 5 C0.68 4.67 -0.64 4.34 -2 4 C-2 5.65 -2 7.3 -2 9 C-2.99 8.67 -3.98 8.34 -5 8 C-3.8141763 4.62496331 -2.72426311 2.35277269 0 0 Z " fill="#58AECC" transform="translate(123,133)"/>
<path d="M0 0 C0.33 0.66 0.66 1.32 1 2 C1.70125 1.814375 2.4025 1.62875 3.125 1.4375 C6.33888698 0.94843024 8.83560336 1.33768442 12 2 C12 2.33 12 2.66 12 3 C6.76679942 3.80510778 2.1529366 4.4722676 -3 3 C-2.01 3 -1.02 3 0 3 C0 2.01 0 1.02 0 0 Z " fill="#74C5DE" transform="translate(217,118)"/>
<path d="M0 0 C0.99 0.66 1.98 1.32 3 2 C3 2.66 3 3.32 3 4 C-1.95 5.485 -1.95 5.485 -7 7 C-7 6.34 -7 5.68 -7 5 C-6.34 5 -5.68 5 -5 5 C-5 4.34 -5 3.68 -5 3 C-3.35 3 -1.7 3 0 3 C0 2.01 0 1.02 0 0 Z " fill="#72B6CB" transform="translate(184,90)"/>
<path d="M0 0 C0.66 0.33 1.32 0.66 2 1 C2 1.99 2 2.98 2 4 C2.99 4.33 3.98 4.66 5 5 C4.67 6.32 4.34 7.64 4 9 C1.69 6.69 -0.62 4.38 -3 2 C-2.01 1.34 -1.02 0.68 0 0 Z " fill="#7DBDD5" transform="translate(191,179)"/>
<path d="M0 0 C0.66 0 1.32 0 2 0 C1.32829194 3.8063457 0.27253436 7.35206816 -1 11 C-1.66 10.67 -2.32 10.34 -3 10 C-2.67 7.36 -2.34 4.72 -2 2 C-1.34 2 -0.68 2 0 2 C0 1.34 0 0.68 0 0 Z " fill="#64B1C7" transform="translate(125,144)"/>
<path d="M0 0 C0.66 0 1.32 0 2 0 C2.20496094 0.62648438 2.40992188 1.25296875 2.62109375 1.8984375 C2.89050781 2.71570313 3.15992188 3.53296875 3.4375 4.375 C3.70433594 5.18710938 3.97117188 5.99921875 4.24609375 6.8359375 C4.95179729 9.01031799 4.95179729 9.01031799 6 11 C4.68 11 3.36 11 2 11 C2 9.35 2 7.7 2 6 C1.34 6 0.68 6 0 6 C0 4.02 0 2.04 0 0 Z " fill="#52A3BD" transform="translate(175,122)"/>
<path d="M0 0 C1.65 0 3.3 0 5 0 C5.33 1.32 5.66 2.64 6 4 C4.02 4.66 2.04 5.32 0 6 C0 4.02 0 2.04 0 0 Z " fill="#2695BD" transform="translate(195,179)"/>
<path d="M0 0 C3.375 0.6875 3.375 0.6875 7 2 C8.4375 4.625 8.4375 4.625 9 7 C4.58110387 5.64978174 2.65654657 3.73884332 0 0 Z " fill="#68B2CF" transform="translate(135,172)"/>
<path d="M0 0 C1.134375 0.474375 2.26875 0.94875 3.4375 1.4375 C7.91298952 3.1348234 12.24712186 3.68094105 17 4 C17 4.33 17 4.66 17 5 C10.48208608 5.3540919 5.82478551 5.03901852 0 2 C0 1.34 0 0.68 0 0 Z " fill="#58A5BF" transform="translate(138,114)"/>
<path d="M0 0 C1.9375 0.8125 1.9375 0.8125 4 2 C4.33 2.99 4.66 3.98 5 5 C4.01 5.99 3.02 6.98 2 8 C1.01 7.01 0.02 6.02 -1 5 C-0.34 5 0.32 5 1 5 C0.67 3.35 0.34 1.7 0 0 Z " fill="#48A4C7" transform="translate(194,109)"/>
<path d="M0 0 C0.66 0 1.32 0 2 0 C1.34 4.62 0.68 9.24 0 14 C-0.33 14 -0.66 14 -1 14 C-1.22226864 12.23086176 -1.42733873 10.45955629 -1.625 8.6875 C-1.74101563 7.70136719 -1.85703125 6.71523437 -1.9765625 5.69921875 C-2 3 -2 3 0 0 Z " fill="#5AA5C0" transform="translate(123,78)"/>
<path d="M0 0 C3.96 0 7.92 0 12 0 C12.33 1.32 12.66 2.64 13 4 C10 4 10 4 7 2 C4.67612053 1.60612212 2.34206251 1.26513915 0 1 C0 0.67 0 0.34 0 0 Z " fill="#72BAD2" transform="translate(221,77)"/>
<path d="M0 0 C1.32 0.33 2.64 0.66 4 1 C3.67 2.65 3.34 4.3 3 6 C3.99 6.33 4.98 6.66 6 7 C5.01 7.495 5.01 7.495 4 8 C2.02 6.35 0.04 4.7 -2 3 C-1.34 2.67 -0.68 2.34 0 2 C0 1.34 0 0.68 0 0 Z " fill="#2B94B5" transform="translate(210,170)"/>
<path d="M0 0 C0 0.66 0 1.32 0 2 C-1.6796875 3.32421875 -1.6796875 3.32421875 -3.875 4.6875 C-4.59429687 5.14511719 -5.31359375 5.60273438 -6.0546875 6.07421875 C-7.01761719 6.53248047 -7.01761719 6.53248047 -8 7 C-8.66 6.67 -9.32 6.34 -10 6 C-2.92307692 0 -2.92307692 0 0 0 Z " fill="#69B3C7" transform="translate(217,140)"/>
<path d="M0 0 C0 1.65 0 3.3 0 5 C-0.33 4.01 -0.66 3.02 -1 2 C-2.299375 2.12375 -3.59875 2.2475 -4.9375 2.375 C-5.66839844 2.44460937 -6.39929688 2.51421875 -7.15234375 2.5859375 C-8.06693359 2.79089844 -8.06693359 2.79089844 -9 3 C-9.33 3.66 -9.66 4.32 -10 5 C-10 4.01 -10 3.02 -10 2 C-6.5980513 -0.09350689 -3.94727588 -0.17942163 0 0 Z " fill="#71BBD1" transform="translate(168,124)"/>
<path d="M0 0 C3 1 3 1 4.1875 3.0625 C4.455625 3.701875 4.72375 4.34125 5 5 C4.01 5.33 3.02 5.66 2 6 C1.67 6.66 1.34 7.32 1 8 C-0.35439668 5.29120665 -0.06501451 2.99066732 0 0 Z " fill="#2298C2" transform="translate(126,108)"/>
<path d="M0 0 C0.66 0.66 1.32 1.32 2 2 C0.68 3.32 -0.64 4.64 -2 6 C-3.32 4.35 -4.64 2.7 -6 1 C-3.125 0.375 -3.125 0.375 0 0 Z " fill="#449DC3" transform="translate(199,86)"/>
<path d="M0 0 C0.66 0.33 1.32 0.66 2 1 C1.26418258 2.1549921 0.51069961 3.29874185 -0.25 4.4375 C-0.66765625 5.07558594 -1.0853125 5.71367187 -1.515625 6.37109375 C-3.27248877 8.29902057 -4.46089803 8.61479436 -7 9 C-7 8.34 -7 7.68 -7 7 C-6.34 7 -5.68 7 -5 7 C-5 6.34 -5 5.68 -5 5 C-4.34 5 -3.68 5 -3 5 C-2.690625 4.360625 -2.38125 3.72125 -2.0625 3.0625 C-1 1 -1 1 0 0 Z " fill="#80C2D4" transform="translate(143,138)"/>
<path d="M0 0 C1.32 0.33 2.64 0.66 4 1 C4.33 2.98 4.66 4.96 5 7 C3.68 7 2.36 7 1 7 C0.67 4.69 0.34 2.38 0 0 Z " fill="#3A9FC3" transform="translate(220,111)"/>
<path d="M0 0 C0.66 0 1.32 0 2 0 C2.33 1.65 2.66 3.3 3 5 C1.3745692 4.85904936 -0.25034051 4.71207913 -1.875 4.5625 C-2.77992188 4.48128906 -3.68484375 4.40007812 -4.6171875 4.31640625 C-7 4 -7 4 -9 3 C-8 2 -8 2 -6.15234375 1.90234375 C-4.1015625 1.93489583 -2.05078125 1.96744792 0 2 C0 1.34 0 0.68 0 0 Z " fill="#3093B6" transform="translate(192,109)"/>
<path d="M0 0 C3 1 3 1 4 3 C4.66 3 5.32 3 6 3 C5.34 4.32 4.68 5.64 4 7 C3.01 6.67 2.02 6.34 1 6 C0.67 4.02 0.34 2.04 0 0 Z " fill="#56ABC5" transform="translate(114,97)"/>
<path d="M0 0 C0.66 0 1.32 0 2 0 C2 0.99 2 1.98 2 3 C3.32 3.66 4.64 4.32 6 5 C6 6.65 6 8.3 6 10 C2.51668565 6.98112756 1.20842856 4.43090471 0 0 Z " fill="#6EB5CC" transform="translate(132,94)"/>
<path d="M0 0 C1 2 1 2 0.25 4.5625 C-1 7 -1 7 -4 8 C-4 7.34 -4 6.68 -4 6 C-4.66 5.67 -5.32 5.34 -6 5 C-4.02 3.35 -2.04 1.7 0 0 Z " fill="#56A9C8" transform="translate(174,179)"/>
<path d="M0 0 C0.625 2.375 0.625 2.375 1 5 C0.34 5.66 -0.32 6.32 -1 7 C-2.32 5.02 -3.64 3.04 -5 1 C-3 0 -3 0 0 0 Z " fill="#67B0C9" transform="translate(180,166)"/>
<path d="M0 0 C0.99 0.99 1.98 1.98 3 3 C3.66 2.01 4.32 1.02 5 0 C5 1.32 5 2.64 5 4 C3.02 4.99 3.02 4.99 1 6 C1 5.34 1 4.68 1 4 C0.01 3.67 -0.98 3.34 -2 3 C-1.34 2.01 -0.68 1.02 0 0 Z " fill="#2795BB" transform="translate(249,138)"/>
<path d="M0 0 C0.66 0 1.32 0 2 0 C2.36923077 4.55384615 2.36923077 4.55384615 0.5 6.8125 C0.005 7.204375 -0.49 7.59625 -1 8 C-1.66 6.68 -2.32 5.36 -3 4 C-2.01 3.67 -1.02 3.34 0 3 C0 2.01 0 1.02 0 0 Z " fill="#45A3C7" transform="translate(128,137)"/>
<path d="M0 0 C0.99 0.33 1.98 0.66 3 1 C1.68 1.33 0.36 1.66 -1 2 C-0.67 1.34 -0.34 0.68 0 0 Z M-6 1 C-3.525 1.495 -3.525 1.495 -1 2 C-1.33 3.32 -1.66 4.64 -2 6 C-4 4.625 -4 4.625 -6 3 C-6 2.34 -6 1.68 -6 1 Z " fill="#58ABC4" transform="translate(177,135)"/>
<path d="M0 0 C0.33 0.66 0.66 1.32 1 2 C0.06553465 4.03144641 -0.93224776 6.03533587 -2 8 C-4.97 7.505 -4.97 7.505 -8 7 C-7.01 6.34 -6.02 5.68 -5 5 C-3.31384218 3.35305515 -1.64429829 1.68873879 0 0 Z " fill="#6FBAD2" transform="translate(162,164)"/>
<path d="M0 0 C0.33 0.99 0.66 1.98 1 3 C0.34 3.66 -0.32 4.32 -1 5 C-1 4.34 -1 3.68 -1 3 C-3.64 3.33 -6.28 3.66 -9 4 C-6.3144406 1.3144406 -3.62378672 0.93950026 0 0 Z " fill="#2B95B3" transform="translate(218,121)"/>
<path d="M0 0 C0.99 0.33 1.98 0.66 3 1 C3 4.96 3 8.92 3 13 C2.34 12.67 1.68 12.34 1 12 C1.020625 10.7625 1.04125 9.525 1.0625 8.25 C1.06766681 5.3359175 0.93015558 2.79046673 0 0 Z " fill="#74B6CD" transform="translate(197,117)"/>
<path d="M0 0 C2.875 -0.1875 2.875 -0.1875 6 0 C6.66 0.99 7.32 1.98 8 3 C4.25 4.125 4.25 4.125 2 3 C2 2.34 2 1.68 2 1 C1.34 0.67 0.68 0.34 0 0 Z " fill="#2198B7" transform="translate(165,116)"/>
<path d="M0 0 C5.445 1.485 5.445 1.485 11 3 C11 3.33 11 3.66 11 4 C3.57142857 4.28571429 3.57142857 4.28571429 0 2 C0 1.34 0 0.68 0 0 Z " fill="#78BAD2" transform="translate(137,185)"/>
<path d="M0 0 C3.3 1.65 6.6 3.3 10 5 C6.52176885 6.15941038 4.54104422 5.70820884 1 5 C0.67 3.35 0.34 1.7 0 0 Z " fill="#73B4CB" transform="translate(143,166)"/>
<path d="M0 0 C1.65 1.65 3.3 3.3 5 5 C4.67 5.66 4.34 6.32 4 7 C3.01 7 2.02 7 1 7 C0.67 4.69 0.34 2.38 0 0 Z " fill="#61AFCB" transform="translate(237,143)"/>
<path d="M0 0 C1.875 0.3125 1.875 0.3125 4 1 C4.66 1.99 5.32 2.98 6 4 C4.35 3.67 2.7 3.34 1 3 C1 3.66 1 4.32 1 5 C0.34 5 -0.32 5 -1 5 C-0.67 3.35 -0.34 1.7 0 0 Z " fill="#429EBB" transform="translate(165,145)"/>
<path d="M0 0 C0 2.62113708 -0.31292445 4.50935112 -1 7 C-2.65 7 -4.3 7 -6 7 C-4.02 4.69 -2.04 2.38 0 0 Z " fill="#5FACC6" transform="translate(239,114)"/>
<path d="M0 0 C0.66 0.33 1.32 0.66 2 1 C0.3125 4 0.3125 4 -2 7 C-4.75 7.375 -4.75 7.375 -7 7 C-4.66666667 4.66666667 -2.33333333 2.33333333 0 0 Z " fill="#76BAD2" transform="translate(165,91)"/>
<path d="M0 0 C0.66 0 1.32 0 2 0 C1.67 1.65 1.34 3.3 1 5 C-0.32 5.33 -1.64 5.66 -3 6 C-3 4.68 -3 3.36 -3 2 C-2.34 2 -1.68 2 -1 2 C-0.67 1.34 -0.34 0.68 0 0 Z " fill="#2596B7" transform="translate(193,173)"/>
<path d="M0 0 C0.99 0.66 1.98 1.32 3 2 C3 2.99 3 3.98 3 5 C1.68 5.33 0.36 5.66 -1 6 C-1.33 4.68 -1.66 3.36 -2 2 C-1.34 2 -0.68 2 0 2 C0 1.34 0 0.68 0 0 Z " fill="#2C93B5" transform="translate(219,114)"/>
<path d="M0 0 C2.475 0.495 2.475 0.495 5 1 C5 3.31 5 5.62 5 8 C2.98863724 5.44008376 1.37154504 2.95409701 0 0 Z " fill="#6CB4CE" transform="translate(247,71)"/>
<path d="M0 0 C1.98 1.65 3.96 3.3 6 5 C3 6 3 6 0 5 C0 3.35 0 1.7 0 0 Z " fill="#7FBED0" transform="translate(182,62)"/>
<path d="M0 0 C1.65 0 3.3 0 5 0 C5.33 1.98 5.66 3.96 6 6 C3.97945196 4.35830472 1.97956942 2.69088222 0 1 C0 0.67 0 0.34 0 0 Z " fill="#7BBED0" transform="translate(201,167)"/>
<path d="M0 0 C2.475 0.495 2.475 0.495 5 1 C5.33 2.65 5.66 4.3 6 6 C3.97945196 4.35830472 1.97956942 2.69088222 0 1 C0 0.67 0 0.34 0 0 Z " fill="#7BBFD0" transform="translate(195,161)"/>
<path d="M0 0 C2 3 2 3 3 6 C1.68 6 0.36 6 -1 6 C-1.625 4.125 -1.625 4.125 -2 2 C-1.34 1.34 -0.68 0.68 0 0 Z " fill="#489FBB" transform="translate(125,111)"/>
<path d="M0 0 C0.66 0 1.32 0 2 0 C1.40138258 2.35171131 0.73075648 4.6859378 0 7 C-0.99 7.495 -0.99 7.495 -2 8 C-2.20086443 4.28400809 -2.1519437 3.22791555 0 0 Z " fill="#60A9C2" transform="translate(260,98)"/>
<path d="M0 0 C1.65 0.33 3.3 0.66 5 1 C5 1.66 5 2.32 5 3 C3.02 3.33 1.04 3.66 -1 4 C-0.67 2.68 -0.34 1.36 0 0 Z " fill="#2296C0" transform="translate(134,58)"/>
</svg>
